<?xml version="1.0" encoding="UTF-8"?>
<svg id="Layer_1" data-name="Layer 1" xmlns="http://www.w3.org/2000/svg" viewBox="0 0 1366 768">
  <defs>
    <style>
      .cls-1 {
        opacity: .5;
      }

      .cls-1, .cls-2 {
        fill: #785ed9;
      }

      .cls-3 {
        fill: #f3effe;
        stroke: #785ed9;
        stroke-miterlimit: 10;
        stroke-width: .6px;
      }
    </style>
  </defs>
  <g>
    <g>
      <polygon class="cls-3" points="1048.66 281.89 1053.31 286.01 1056.12 283.95 1052.01 282.22 1055.47 281.35 1061.31 283.95 1061.42 281.14 1065.43 278.97 1062.18 275.4 1050.71 271.29 1048.66 271.29 1052.74 278.65 1049.85 278.65 1048.66 281.89"/>
      <polygon class="cls-3" points="1064.43 293.47 1057.04 285.57 1053.85 287.19 1053.85 291.42 1057.04 291.42 1057.04 297.91 1052.24 302.71 1050.93 301.69 1050.93 307.43 1048.22 306.78 1041.73 307.43 1037.51 312.3 1037.51 314.13 1035.02 316.62 1042.17 323.76 1043.95 321.98 1043.95 317.16 1039.79 314.57 1046.71 311.32 1051.04 311.32 1051.04 313.7 1053.58 316.24 1058.34 311.48 1062.51 311.48 1062.51 308.83 1065.43 308.83 1065.43 305.7 1064.43 304.7 1064.43 293.47"/>
    </g>
    <polygon class="cls-3" points="1045.03 313.26 1045.03 314.07 1046.65 314.07 1046.65 312.73 1048.64 312.73 1050.27 314.35 1048.64 315.97 1046.98 315.97 1046.98 318.12 1045.36 318.12 1043.93 315.2 1043.93 313.46 1045.03 313.26"/>
    <polygon class="cls-3" points="889.83 404.58 889.83 414.97 891.78 418.86 896.65 416.27 896.65 412.37 891.67 404.58 889.83 404.58"/>
    <g>
      <polygon class="cls-3" points="1027.53 390.3 1033.35 394.68 1035.29 391.27 1030.26 387.22 1026.69 388.03 1024.42 384.62 1024.42 380.89 1026.37 380.89 1027.5 376.83 1025.55 372.23 1019.77 371.31 1019.77 380.08 1018.09 380.08 1022.15 389.16 1027.53 390.3"/>
      <polygon class="cls-3" points="1023.99 394.68 1025.4 394.68 1025.4 391.06 1021.61 390.08 1023.99 394.68"/>
      <polygon class="cls-3" points="1029.18 404.47 1032.54 407.72 1037.08 404.04 1034 399.33 1032.43 400.9 1027.99 396.47 1027.99 401.66 1031.45 401.66 1031.45 404.47 1029.18 404.47"/>
      <polygon class="cls-3" points="1036.92 396.74 1035.29 398.36 1038.81 402.74 1041.19 399.82 1039.68 398.31 1039.68 395.71 1038.16 393.98 1035.29 394.68 1036.92 396.74"/>
      <polygon class="cls-3" points="1044.43 412.7 1041.19 403.39 1039.03 403.93 1039.87 406.93 1037.08 409.72 1031.94 409.72 1027.45 414.21 1028.64 414.21 1030.7 412.16 1035.75 412.16 1035.75 416.35 1039.03 419.62 1040.32 419.62 1040.32 413.56 1043.36 413.56 1043.36 416.81 1044.43 412.7"/>
    </g>
    <polygon class="cls-3" points="1013.5 410.53 1022.31 401.71 1020.42 399.82 1012.96 409.23 1013.5 410.53"/>
    <polygon class="cls-3" points="1120.33 613.44 1126.17 615.06 1157.01 598.35 1157.01 594.78 1153.93 594.78 1153.76 592.51 1120.33 613.44"/>
    <polygon class="cls-3" points="1159.6 594.94 1161.39 596.56 1180.21 582.77 1178.59 581.31 1174.21 582.77 1171.13 581.31 1172.91 578.55 1171.29 572.55 1168.04 570.98 1168.04 579.52 1159.93 587.64 1162.53 590.88 1159.6 594.94"/>
    <g>
      <polygon class="cls-3" points="1057.09 485.72 1058.72 484.42 1058.72 482.69 1054.39 482.69 1054.98 483.62 1057.09 485.72"/>
      <polygon class="cls-3" points="1113.52 529.86 1113.52 524.19 1111.24 524.19 1111.24 515.91 1103.62 508.28 1103.62 496.11 1098.26 496.11 1098.26 485.89 1096.15 485.89 1096.15 480.37 1093.55 480.37 1090.2 492.05 1090.2 496.76 1086.74 507.47 1083.49 507.47 1071.4 495.38 1077.33 487.02 1075.54 484.59 1072.78 486.21 1062.23 483.62 1062.18 487.35 1056.12 487.35 1050.39 493.08 1050.39 496.87 1046.33 496.87 1042.41 492.95 1025.83 504.66 1025.83 509.42 995.53 523.27 992.07 532.14 994.46 537.55 990.99 540.58 990.99 563.51 988.91 565.59 988.91 569.57 991.68 572.34 999.21 572.34 1004.82 566.74 1015.87 566.74 1018.77 563.85 1043.25 559.4 1051.14 562.43 1051.14 572.34 1052.5 570.98 1061.02 562.47 1062.18 564.27 1055.42 572.34 1056.71 573.36 1060.61 570.27 1058.5 574.66 1062.18 574.66 1062.18 583.77 1069.86 586.34 1074.57 583.77 1077.65 586.34 1091.28 581.31 1095.34 574.98 1108.65 562.97 1117.9 546.74 1117.9 534.25 1113.52 529.86"/>
      <polygon class="cls-3" points="1073.64 595.36 1069.37 592.67 1067.1 594.94 1067.1 599.4 1066.05 600.21 1066.05 603.87 1069.78 603.87 1072.01 601.64 1073.35 601.64 1080.27 594.72 1078.63 593.48 1073.64 595.36"/>
    </g>
    <g>
      <polygon class="cls-3" points="1127.15 458.95 1126.01 458.95 1124.55 461.01 1115.46 461.01 1116.27 463.73 1119.76 463.73 1121.14 465.11 1126.74 462.03 1129.26 462.03 1129.26 456.92 1127.15 456.92 1127.15 458.95"/>
      <polygon class="cls-3" points="1124.96 451.16 1131.12 455.86 1131.12 458.54 1132.58 458.54 1132.58 455.3 1124.96 449.94 1124.96 451.16"/>
      <polygon class="cls-3" points="1136.56 460.41 1139.56 467.14 1141.43 467.14 1141.43 464.38 1137.78 460 1136.56 460.41"/>
      <polygon class="cls-3" points="1142.77 464.99 1142.65 466.58 1145.65 469.01 1147.76 469.01 1147.76 468.28 1146.05 468.28 1142.77 464.99"/>
      <polygon class="cls-3" points="1153.76 473.15 1153.76 471.08 1150.76 469.01 1148.97 469.01 1148.97 470.15 1151 470.15 1152.54 473.15 1153.76 473.15"/>
      <polygon class="cls-3" points="1142.65 471.69 1145.89 474.36 1147.76 474.36 1147.76 472.82 1142.65 469.58 1142.65 471.69"/>
      <polygon class="cls-3" points="1152.22 477.37 1156.2 477.37 1156.2 476.15 1152.22 474.93 1152.22 477.37"/>
      <polygon class="cls-3" points="1118.76 476.53 1118.76 474.9 1116.06 474.9 1111.08 466.25 1114.87 466.25 1113.79 463.22 1108.16 461.06 1107.41 457.6 1104.7 455.86 1103.73 455.86 1093.23 451.03 1093.23 475.84 1097.23 476.31 1100.8 470.04 1108.27 471.66 1113.25 479.77 1118.87 479.77 1121.9 481.72 1122.87 479.45 1120.28 476.53 1118.76 476.53"/>
    </g>
    <path class="cls-3" d="M766.55,285.74l2.11,1.3h2v-.51l-.85-.85-.32-2.01-4.51-2.03h-3.41l-9.63-3.62-1.59,.36c2.15,2.15,4.32,4.32,4.41,4.4,.16,.16,0,1.62,0,1.62l-1.3,1.3h4.71l1.63,1.62h5.14l1.62-1.57Z"/>
    <polygon class="cls-3" points="766.21 292.77 766.76 292.08 769.72 293.94 770.04 295.47 771.85 295.37 771.47 292.71 768.66 291.63 769.47 290.66 765.95 287.3 764.93 287.3 759.79 287.3 760.39 287.9 763.68 294.73 765.85 292.28 766.21 292.77"/>
    <g>
      <polygon class="cls-3" points="766.76 292.08 766.21 292.77 768.28 295.58 770.04 295.47 769.72 293.94 766.76 292.08"/>
      <polygon class="cls-3" points="776.09 284.52 773.8 287.09 770.99 284.33 769.49 283.66 769.81 285.67 770.66 286.52 770.66 287.03 768.66 287.03 766.55 285.74 764.93 287.3 765.95 287.3 769.47 290.66 768.66 291.63 771.47 292.71 771.82 295.14 774.77 292.39 776.72 292.88 776.37 295.93 778.51 296.95 778.51 294.99 779.86 293.63 779.86 290.98 781.83 289.9 776.09 284.52"/>
    </g>
    <polygon class="cls-3" points="796.46 370.85 787.3 370.85 780.8 377.34 779.48 376.02 768.01 375.15 768.01 378.18 766.43 379.69 766.5 379.81 770.39 393.33 797.76 382.29 797.76 379.81 800.66 378.2 797.04 370.56 796.46 370.85"/>
    <polygon class="cls-3" points="807.04 347.86 809.55 347.86 807.93 344 801.22 351.46 795.14 351.46 797.22 355.36 805.44 356 805.46 356.02 807.04 351.19 807.04 347.86"/>
    <polygon class="cls-3" points="821.35 356.65 817.02 352.22 810.42 349.95 809.55 347.86 807.04 347.86 807.04 351.19 805.46 356.02 807.72 358.39 805.99 366.07 797.04 370.56 800.66 378.2 815.29 370.07 821.35 356.65"/>
    <polygon class="cls-3" points="793.11 349.06 793.11 342.59 791.27 342.59 789.94 346.11 791.75 349.73 793.11 349.06"/>
    <polygon class="cls-3" points="776.04 332.2 770.04 331.72 756 320.68 751.62 320.68 745.94 323.36 748.13 325.87 747.32 328.55 744.97 328.55 743.1 332.2 738.51 330.88 737.61 336.31 740.64 336.31 766.43 379.69 768.01 378.18 768.01 375.15 779.48 376.02 780.8 377.34 787.3 370.85 796.46 370.85 805.99 366.07 807.72 358.39 805.44 356 797.22 355.36 795.14 351.46 794.73 351.46 793.11 349.84 793.11 349.06 791.75 349.73 789.94 346.11 789.76 346.59 782.4 334.37 782.4 329.15 777.59 328.39 776.04 332.2"/>
    <polygon class="cls-3" points="742.09 315.24 742.09 313.34 742.9 313.34 742.9 312.28 740.18 310.42 740.18 311.59 738.21 317.29 740.04 317.29 742.09 315.24"/>
    <polygon class="cls-3" points="740.18 317.15 740.04 317.29 738.21 317.29 735.72 324.49 735.63 324.49 738.58 330.47 738.51 330.88 738.97 331.01 740.18 324.62 740.18 317.15"/>
    <polygon class="cls-3" points="743.21 320.17 744.64 320.17 756.65 312.13 756.65 307.05 756.65 305.94 756.65 304.29 758.11 304.29 760.49 301.91 759.57 301.91 754.16 301.91 752 304.07 742.05 304.07 740.18 305.94 740.18 310.42 742.9 312.28 742.9 313.34 742.09 313.34 742.09 315.24 740.18 317.15 740.18 318.25 741.29 318.25 743.21 320.17"/>
    <polygon class="cls-3" points="780.18 324.85 779.21 324.85 779.21 321.11 777.53 319.44 776.29 319.44 774.61 317.76 772.69 317.76 772.69 316.49 770.07 313.86 770.07 311.43 771.47 310.02 772.61 310.02 772.61 309.54 771.85 308.78 771.85 306.29 769.69 306.29 766.89 301.91 765.41 301.91 764.33 301.91 760.49 301.91 758.11 304.29 756.65 304.29 756.65 305.94 756.65 307.05 756.65 312.13 749.99 316.59 751.71 320.68 756 320.68 770.04 331.72 776.04 332.2 777.59 328.39 782.4 329.15 782.4 329.09 780.18 326.96 780.18 324.85"/>
    <polygon class="cls-3" points="827.52 341.07 830.55 341.07 830.55 338.37 827.95 338.37 827.95 334.04 826.22 334.04 820.64 328.47 823.3 325.82 823.3 323.12 820.81 323.12 819.08 315.97 818.21 315.11 818.21 304.07 816.05 304.07 808.26 299.75 805.01 299.75 805.01 298.23 797.98 298.23 797.98 301.26 795.01 301.26 795.01 302.45 789.43 304.07 783.27 300.83 780.35 300.83 778.51 297.37 778.51 297.15 778.51 296.95 776.37 295.93 776.72 292.88 774.77 292.39 771.82 295.14 771.85 295.37 770.04 295.47 768.28 295.58 766.21 292.77 765.85 292.28 763.68 294.73 767.14 301.91 766.89 301.91 769.69 306.29 771.85 306.29 771.85 308.78 772.61 309.54 772.61 310.02 771.47 310.02 770.07 311.43 770.07 313.86 772.69 316.49 772.69 317.76 774.61 317.76 776.29 319.44 777.53 319.44 779.21 321.11 779.21 324.85 780.18 324.85 780.18 326.96 782.4 329.09 782.4 328.04 786.89 328.04 792.09 336.69 794.92 336.91 800.47 341.61 806.96 341.61 806.96 339.78 811.07 339.78 811.07 342.91 825.46 345.69 825.46 343.13 827.52 341.07"/>
    <path class="cls-3" d="M881.69,260.06v-2.88l-1.49-.34h-4.81l-6.01-6.01-5.41,.97-2.38-2.22-2.27,1.89-14.44-11.68v-2.43l-4.6,4.6h-2.92v-2.81h-7.68l-2.49-4.22-5.95-.11-18.5,4.76-1.19,1.3,1.3,2.6-1.41,4.11,4.54,1.62v3.08h-6.65l-1.9-1.89h-5.19l-1.95,1.95-9.52-4.11h-4.87l-6.6,3.57,2.05,2.06-1.25,1.24-3.19-3.19-1.95,1.95v6.82h2.16v2.87h3.08l4.87,4.87,.65-.65,4.49-2.32h5.84l2,2v3.73h-6.11l-2.81,2.81v1.41h1.95l4.22,4.22h2.76v2.81l.81,2.71,.65-2.16h2.16l.08,.18,1.54-.61,2.38,1.73,1.41,2.27h1.63l-2.92-13.74,7.9-2.05,1.78,.98-.97-2.33,.97-2.11,2.11,.81,3.09,5.03-.63,1.12,2.09,1.15,3.25,3.25h9.2l2.92,2.92v1.95h3.03v3.46h4.87v2.49h2.82l5.19-7.03v-1.51h6.71v-1.41h2.38l1.47,1.47h12.27l4.76,1.45,.87-3.46-4.54-6.17,3.89-1.41,3.35,.68v-1.32l-1.4-1.41v-4.44h7.57v-1.51l-1.41-1.41v-1.91h2.36Zm-19.56,6.41h-10.39l-2.65,2.65,.22,3.68-2.92-1.62v-3.89l2.38-2.38h13.36v1.57Z"/>
    <polygon class="cls-3" points="824.54 308.56 824.54 306.72 828.98 304.94 828.98 300.99 833.85 300.99 833.85 297.69 830.55 297.69 823.81 294.31 816.05 286.55 810.34 286.55 810.34 284.46 807.12 281.24 804.53 281.24 804.53 283.25 802.58 283.25 802.58 286.55 798.67 286.23 798.74 286.55 797.11 286.55 795.71 284.27 793.33 282.54 791.79 283.16 792.68 285.14 794.95 286.87 794.52 288.6 789.65 288.6 789.65 291.52 791.81 291.52 795.01 294.71 795.01 301.26 797.98 301.26 797.98 298.23 805.01 298.23 805.01 299.75 808.26 299.75 816.05 304.07 818.21 304.07 818.21 307.09 822.27 308.56 824.54 308.56"/>
    <polygon class="cls-3" points="839.34 298.45 835.36 293.99 835.36 292.28 838.52 292.28 842.58 287.66 844.28 288.6 843.31 289.47 844.77 290.71 848.4 290.71 850.78 288.33 846.02 285.52 846.02 286.93 842.12 285.52 844.07 283.35 843.14 282.82 838.23 289.47 835.41 289.47 835.41 286.98 830.55 286.98 830.55 283.52 827.52 283.52 827.52 281.57 824.6 278.65 815.4 278.65 812.15 275.4 810.06 274.25 808.58 276.86 805.34 276.08 806.15 273.29 805.5 271.73 803.72 270.75 795.82 272.81 798.67 286.23 802.58 286.55 802.58 283.25 804.53 283.25 804.53 281.24 807.12 281.24 810.34 284.46 810.34 286.55 816.05 286.55 823.81 294.31 830.55 297.69 833.85 297.69 833.85 300.33 837.63 301.53 839.34 298.45"/>
    <polygon class="cls-3" points="613.19 238.97 611.98 238.97 611.08 239.86 609.41 238.73 612.58 235.81 608.7 235.81 608.7 237.91 607.35 239.27 603.24 239.27 603.24 241.76 604.75 243.27 599.8 248.22 601.72 250.14 606.65 250.14 610.05 246.73 613.41 246.73 614.65 242.97 614.65 240.62 615.41 239.86 613.19 239.86 613.19 238.97"/>
    <g>
      <polygon class="cls-3" points="615.41 239.86 617.63 237.64 615.79 235.81 612.58 235.81 609.41 238.73 611.08 239.86 611.98 238.97 613.19 238.97 613.19 239.86 615.41 239.86"/>
      <polygon class="cls-3" points="636.56 245.43 635.8 242.97 634.61 244.24 631.8 244.24 633.1 242.3 630.5 237.46 629.5 237.46 627.34 235.29 624.93 232.88 624.93 231.42 627.69 228.67 627.69 227.69 621.85 227.69 624.23 225.31 624.23 224.12 621.09 224.12 618.49 226.72 616.11 226.72 616.11 229.96 615.14 230.94 615.14 233.42 614.49 233.42 615.57 234.51 616.22 233.86 616.22 235.21 617.47 235.21 618.82 233.86 619.52 234.56 618.12 235.97 619.03 236.89 622.5 236.89 622.93 240.13 622.93 242.97 618.39 242.97 618.82 244.68 618.82 247.06 616.87 247.06 616.87 248.36 618.71 248.36 620.76 249 623.69 248.36 622.06 249.95 619.06 249.95 614.49 254.52 615.9 254.52 619.63 253.17 621.09 251.71 623.04 251.71 624.12 252.79 632.99 251.6 634.94 249.54 633.32 249.54 636.56 245.43"/>
      <polygon class="cls-3" points="613.52 227.37 615.9 225.42 612.76 224.88 612.76 226.5 611.68 226.83 612.76 229.64 613.52 227.37"/>
      <polygon class="cls-3" points="626.5 221.42 624.45 221.42 624.45 223.04 625.47 223.04 626.5 221.42"/>
    </g>
    <polygon class="cls-3" points="660.8 161.26 674 167.32 680.27 161.26 686.55 165.48 690.22 162.56 682.87 159.53 694.77 159.53 694.77 156.72 681.13 155.64 660.8 157.37 660.8 161.26"/>
    <polygon class="cls-3" points="686.46 189.15 684.43 189.15 673.56 196.78 673.56 198.48 671.53 198.48 671.53 200.75 669.18 203.11 670.15 204 670.15 205.51 666.31 205.51 666.31 217.95 664.69 222.17 663.16 223.06 667.29 230.51 666.64 232.56 663.07 233.86 663.07 236.56 666.42 236.34 666.42 235.27 667.51 235.27 671.72 235.27 671.72 232.67 676.37 232.67 678.84 225.18 683.03 220.98 683.03 220.28 678.76 216.01 678.76 210.92 686.82 206 688.82 204 687.52 202.81 690.33 199.99 692.71 199.99 692.71 192.56 686.46 189.15"/>
    <g>
      <polygon class="cls-3" points="650.79 264.64 650.79 263.12 652.47 262.85 654.25 258.58 645.16 254.85 644.03 255.5 638 250.1 635.48 251.71 635.48 253.87 631.05 255.28 631.05 257.12 627.58 257.01 627.58 255.28 624.98 255.82 625.96 257.23 625.96 259.17 622.6 259.5 621.74 258.31 616.87 259.72 617.63 262.42 623.15 263.93 623.25 265.12 626.61 268.48 624.92 277.93 631.12 281.41 632.26 280.22 638.67 281.63 638.67 280.11 641.92 278.16 647.11 279.87 649.54 279.87 653.28 277.06 650.52 275.57 650.52 268.21 648.22 268.21 648.22 267.21 650.79 264.64"/>
      <polygon class="cls-3" points="657.5 280.22 657.5 281.3 655.49 281.3 655.49 284.17 656.49 286.06 657.5 286.06 657.5 284.11 658.47 284.11 658.47 280.22 657.5 280.22"/>
    </g>
    <polygon class="cls-3" points="607.23 298.35 606.35 297.47 606.35 296.18 607.73 295.47 606.35 292.39 608.97 292.39 608.97 287.85 610.49 286.33 610.49 284.54 605.08 284.54 605.08 283.63 602.81 283.63 602.81 288.6 599.67 295.74 601.08 297.15 601.08 302.67 605.29 301.37 605.75 301.37 605.75 299.83 607.23 298.35"/>
    <polygon class="cls-3" points="632.26 280.22 631.12 281.41 624.92 277.93 624.77 278.76 621.95 278.11 609.41 278.11 606.73 277.27 604.86 279.14 602.64 279.14 601.51 280.27 602.81 281.57 602.81 283.63 605.08 283.63 605.08 284.54 610.49 284.54 610.49 286.33 608.97 287.85 608.97 292.39 606.35 292.39 607.73 295.47 606.35 296.18 606.35 297.47 607.23 298.35 605.75 299.83 605.75 301.37 607.46 301.37 608.97 302.88 608.97 304.72 611.35 306.24 615.14 302.87 621.59 302.87 628.04 296.42 628.04 292.44 631.61 288.71 631.61 287.49 638.67 284.33 638.67 281.63 632.26 280.22"/>
    <polygon class="cls-3" points="697.64 185.88 701.91 185.88 705.37 187.23 705.95 188.13 709.7 186.51 709.7 184.63 696.93 183.12 681.89 186.04 674.54 189.82 674.54 188.42 670.86 190.91 666.64 190.91 666.64 191.99 671.07 191.99 671.03 193.03 665.91 198.16 665.91 200.89 658.79 208 656.9 208 656.9 206.92 647.06 211.46 647.06 222.61 653.22 226.5 660.8 222.5 662.85 222.5 663.16 223.06 664.69 222.17 666.31 217.95 666.31 205.51 670.15 205.51 670.15 204 669.18 203.11 671.53 200.75 671.53 198.48 673.56 198.48 673.56 196.78 684.43 189.15 686.46 189.15 688.3 190.15 697.64 190.15 697.64 185.88"/>
    <polygon class="cls-3" points="711.43 207.13 711.43 205.08 709.91 203.56 709.91 199.78 706.67 196.21 708.67 192.75 705.05 191.66 705.05 188.53 705.95 188.13 705.37 187.23 701.91 185.88 697.64 185.88 697.64 190.15 688.3 190.15 692.71 192.56 692.71 199.99 696.57 199.99 696.57 202.33 689.93 208.97 689.93 215.06 694.44 219.58 706.13 217.2 707.59 216.17 708.07 216.65 714.35 211.54 714.35 210.06 711.43 207.13"/>
    <g>
      <polygon class="cls-3" points="656.68 286.87 655.49 288.01 653.65 288.01 653.65 289.09 654.93 290.36 654.93 294.93 656.68 294.93 656.68 294.28 658.47 294.28 658.47 290.12 659.25 289.33 658.47 286.87 656.68 286.87"/>
      <polygon class="cls-3" points="684.92 291.96 685.81 290.17 677.94 286.03 679.16 284.81 678.51 284.09 675.02 284.25 671.86 281.73 670.56 278.08 666.58 274.91 667.15 273.05 666.18 271.1 669.88 269.91 669.88 268.21 665.83 265.56 661.12 266.15 660.04 268.1 657.77 267.88 656.45 269.13 655.09 267.88 653.65 269.32 650.52 269.32 650.52 275.57 653.28 277.06 656.03 275 659.93 276.7 660.82 280.68 668.94 287.17 670.4 287.09 675.91 291.47 676.97 291.23 678.11 294.96 676.89 297.15 670.72 297.8 669.91 298.61 668.29 298.2 667.07 299.66 675.27 303.96 676.24 302.34 675.18 300.72 676.65 298.37 678.35 299.01 681.76 295.45 681.76 293.34 679.32 292.2 680.95 289.76 684.92 291.96"/>
    </g>
    <polygon class="cls-3" points="660.04 263.23 653.11 263.23 652.52 262.73 652.47 262.85 650.79 263.12 650.79 264.64 648.22 267.21 648.22 268.21 650.52 268.21 650.52 269.32 653.65 269.32 655.09 267.88 656.45 269.13 657.77 267.88 660.04 268.1 660.97 266.42 658.2 264.96 660.04 263.23"/>
    <polygon class="cls-3" points="648.22 250.65 645.45 249.32 639.72 249 638 250.1 644.03 255.5 645.16 254.85 647.31 255.73 649.46 253.54 648.22 250.65"/>
    <polygon class="cls-3" points="649.14 248.58 648 248.58 648 247.79 650.13 247.79 651.33 246.6 651.33 245.79 650.23 245.79 650.23 245.02 651.73 245.02 651.73 243.23 651.14 242.19 647.7 242.19 644.46 244.03 644.46 245.98 639.72 249 645.45 249.32 648.22 250.65 648.26 250.75 649.14 249.72 649.14 248.58"/>
    <polygon class="cls-3" points="658.98 235.24 662.15 232.07 661.39 231.32 660.04 229.96 661.23 228.77 661.23 227.5 659.63 227.5 657.87 229.26 656.2 229.26 654.3 231.15 654.3 235.37 656.38 237.45 658.98 236.58 658.98 235.24"/>
    <polygon class="cls-3" points="672.64 247.84 672.64 245.06 671.48 243.89 671.68 240.23 669.13 237.68 666.35 237.68 664.48 239.55 661.54 239.55 660.14 238.15 658.98 237 658.98 236.58 656.38 237.45 656.79 237.86 656.79 241.11 655.71 241.11 655.71 242.19 653.98 242.19 653.98 241.11 651.28 241.11 651.28 242.19 651.14 242.19 651.73 243.23 651.73 245.02 650.23 245.02 650.23 245.79 651.33 245.79 651.33 246.6 650.13 247.79 648 247.79 648 248.58 649.14 248.58 649.14 249.72 648.26 250.75 649.46 253.54 647.31 255.73 654.25 258.58 652.52 262.73 653.11 263.23 657.71 263.23 660.04 263.23 659.67 263.58 667.56 262.73 668.17 260.72 671.05 259.09 665.77 256.42 665.77 253.09 671.94 250.75 673.81 250.75 673.81 249 672.64 247.84"/>
    <polygon class="cls-3" points="684.6 253.82 684.6 256.33 684.4 256.54 693.48 256.54 694.99 258.04 695.75 258.04 695.75 255.89 698.31 253.33 699.89 253.33 699.89 251.67 698.31 250.08 698.31 247 696.61 247 696.61 244.98 698.63 244.98 698.63 242.95 697.25 241.57 697.25 238.4 694.88 238.4 687.52 238.4 686.98 238.94 683.41 238.94 683.41 237.75 677.67 237.75 671.81 240.37 671.68 240.23 671.48 243.89 672.64 245.06 672.64 247.84 673.81 249 673.81 250.4 679.73 253.82 684.6 253.82"/>
    <polygon class="cls-3" points="702.18 226.01 704.02 227.85 706.56 227.85 706.56 227.42 707.75 226.61 705.96 223.26 707.37 222.12 707.33 220.86 707.1 220.98 697.69 220.98 693.79 223.36 691.63 224.55 692.5 225.75 694.88 225.2 695.52 224.01 696.82 225.31 698.45 225.31 698.45 226.82 700.39 226.01 702.18 226.01"/>
    <polygon class="cls-3" points="673.81 258.36 676 258.36 679.83 259.58 679.83 259.58 679.83 259.58 680.99 259.95 684.4 256.54 684.33 256.54 684.4 256.54 684.6 256.33 684.6 253.82 679.73 253.82 673.81 250.4 673.81 250.75 671.94 250.75 665.77 253.09 665.77 256.42 671.05 259.09 670.18 259.58 673.81 259.58 673.81 258.36"/>
    <polygon class="cls-3" points="695.25 236.83 692.71 236.83 692.11 235.97 691.03 235.97 689.6 236.32 687.52 238.4 694.88 238.4 695.25 236.83"/>
    <polygon class="cls-3" points="675.4 269.61 676.37 269.61 676.37 268.48 677.86 266.99 678.04 265.76 676.72 267.07 670.59 267.07 669.5 267.96 669.88 268.21 669.88 269.91 670.72 269.64 670.88 270.81 675.4 270.81 675.4 269.61"/>
    <polygon class="cls-3" points="676.72 267.07 678.04 265.76 678.39 265.41 680.59 261.66 679.83 259.58 676 258.36 673.81 258.36 673.81 259.58 670.18 259.58 668.17 260.72 667.56 262.73 659.67 263.58 658.2 264.96 660.97 266.42 661.12 266.15 665.83 265.56 669.5 267.96 670.59 267.07 676.72 267.07"/>
    <polygon class="cls-3" points="676.52 273.77 679.51 272.16 686.44 272.54 686.44 269.32 684.87 269.32 684.87 270.16 682.43 270.16 677.86 266.99 676.37 268.48 676.37 269.61 675.4 269.61 675.4 270.81 670.88 270.81 670.88 270.86 669.83 272.16 672.75 274.51 673.48 272.64 674.53 276.3 685.2 282.21 680.05 277.3 676.52 273.77"/>
    <polygon class="cls-3" points="692.71 231.67 700.42 231.67 701.47 232.72 702.77 232.72 704.48 234.43 705.41 234.43 707.56 234.43 709.5 232.38 708.4 230.18 708.4 228.67 706.56 228.67 706.56 227.85 704.02 227.85 702.18 226.01 700.39 226.01 698.45 226.82 698.45 230.5 696.07 230.5 693.79 228.22 691.32 228.22 689.36 230.18 689.36 233.42 689.8 234.09 690.11 232.44 692.71 231.67"/>
    <polygon class="cls-3" points="702.12 239.62 702.77 240.04 703.67 239.26 703.06 238.6 703.67 236.56 705.82 235.97 705.41 234.43 704.48 234.43 702.77 232.72 701.47 232.72 700.42 231.67 692.71 231.67 690.11 232.44 689.8 234.09 689.87 234.21 690.6 235.32 689.6 236.32 691.03 235.97 692.11 235.97 692.71 236.83 695.25 236.83 694.88 238.4 697.25 238.4 697.25 240.47 699.69 240.47 702.12 239.62"/>
    <polygon class="cls-3" points="700.83 247.74 704.31 247.74 704.76 248.19 707.67 248.19 708.21 248.73 712.33 248.73 712.92 249.32 717.22 249.32 717.22 250.21 717.9 250.21 717.9 248.26 719.18 247.17 719.16 247.17 719.16 243.06 722.9 243.06 722.9 241 717.16 237.21 717.16 234.24 709.7 232.78 709.5 232.38 707.56 234.43 705.41 234.43 705.82 235.97 703.67 236.56 703.06 238.6 703.67 239.26 702.77 240.04 702.12 239.62 699.69 240.47 697.25 240.47 697.25 241.57 698.63 242.95 698.63 244.98 696.61 244.98 696.61 247 698.31 247 698.31 249.06 699.5 249.06 700.83 247.74"/>
    <polyline class="cls-3" points="720.36 269.18 720.46 269.07 720.46 267.07 722.52 267.07 724.68 267.07 724.68 268.59 729.44 268.59 729.33 269.34 725.82 270.91 725.82 271.67 727.98 271.67 727.98 272.27 729.47 272.27 729.47 274.19 730.79 275.51 734.47 273.51 734.47 272.37 738.1 272.37 738.1 271.19 734.27 271.15 732.63 269.51 732.63 268.53 735.34 266.1 737.72 266.1 742.26 265.01 742.26 261.39 746.37 261.39 746.37 254.65 740.25 254.65 738.58 252.98 733.09 252.98 727.28 247.17 719.18 247.17 717.9 248.26 717.9 250.21 717.22 250.21 717.22 249.32 712.92 249.32 712.33 248.73 708.21 248.73 707.67 248.19 704.76 248.19 704.31 247.74 700.83 247.74 699.5 249.06 698.31 249.06 698.31 250.08 699.89 251.67 699.89 253.33 698.31 253.33 695.75 255.89 695.75 258.04 695.08 258.04 694.78 260.31 697.42 262.06 702 262.06 703.18 263.07 704.24 263.07 704.95 262.36 706.87 262.36 708.94 260.29 711.37 260.29 715.81 262.15 715.81 263.93 718.11 266.23 718.11 267.07 715.27 267.07 715.27 269.67 713.67 271.13 714.84 272.24 716.09 271.24 717.38 271.16 717.38 270.13 718.52 270.13 719.22 268.44"/>
    <polygon class="cls-3" points="713.32 266.15 712.79 270.82 713.72 271.09 715.27 269.67 715.27 267.07 718.11 267.07 718.11 266.23 715.81 263.93 715.81 262.15 711.37 260.29 708.94 260.29 708.28 260.95 709.75 262.99 713.32 266.15"/>
    <polygon class="cls-3" points="685.41 262.7 685.41 261.53 691.62 261.53 692.73 260.41 694.94 260.41 694.78 260.31 695.08 258.04 694.99 258.04 693.48 256.54 684.4 256.54 680.99 259.95 679.83 259.58 680.59 261.66 680.52 261.78 682.08 262.7 685.41 262.7"/>
    <polygon class="cls-3" points="695.53 263.16 695.53 265.03 692.28 268.28 690.11 268.28 690.11 268.88 691.02 270.39 694.78 274.16 697.86 274.16 697.86 276.15 697.86 276.26 699.53 277.93 707.42 277.93 709.27 276.08 713.2 276.43 715.55 278.16 715.59 278.16 715.59 273.62 718.14 273.62 718.14 271.4 720.36 269.18 719.22 268.44 718.52 270.13 717.38 270.13 717.38 271.16 716.09 271.24 714.84 272.24 713.67 271.13 713.72 271.09 712.79 270.82 713.32 266.15 709.75 262.99 708.28 260.95 706.87 262.36 704.95 262.36 704.24 263.07 703.18 263.07 702 262.06 697.42 262.06 697.35 262.01 696.77 263.16 695.53 263.16"/>
    <polygon class="cls-3" points="690.11 268.28 692.28 268.28 695.53 265.03 695.53 263.16 696.77 263.16 697.35 262.01 694.94 260.41 692.73 260.41 691.62 261.53 685.41 261.53 685.41 262.7 682.08 262.7 680.52 261.78 678.39 265.41 678.04 265.76 677.86 266.99 682.43 270.16 684.87 270.16 684.87 269.32 686.44 269.32 686.44 269.4 687.98 268.28 690.11 268.28"/>
    <polygon class="cls-3" points="686.62 278.2 687.98 278.2 687.98 276.13 686.92 275.07 687.68 274.31 687.68 272.97 686.44 272.34 686.44 272.54 679.51 272.16 676.52 273.77 680.05 277.3 681.46 279.06 682.25 279.83 682.81 280.35 685.2 282.21 685 280.11 686.62 278.2"/>
    <polygon class="cls-3" points="691.74 283.58 690.36 282.2 688.63 282.2 687.44 283.4 686.73 283.4 687.92 284.33 687.6 290.58 690.6 292.93 690.74 293.15 691.47 293.15 691.47 291.09 692.33 291.09 693.68 289.73 693.68 288.46 691.57 287.09 691.74 283.58"/>
    <polygon class="cls-3" points="697.09 282.61 697.09 282.71 692.67 283.11 691.97 283.81 691.74 283.58 691.57 287.09 693.68 288.46 693.68 288.44 695.47 288.44 695.47 286.97 697.58 286.97 698.26 286.29 698.88 286.29 698.88 284.49 697.09 282.61"/>
    <polygon class="cls-3" points="711.86 283.52 713.32 283.68 713.32 278.16 715.55 278.16 713.2 276.43 709.27 276.08 707.42 277.93 699.53 277.93 697.86 276.26 697.86 276.15 697.3 276.43 697.3 277.96 698.63 279.29 698.63 280.64 697.09 280.64 697.09 282.61 698.88 284.49 698.88 286.29 699.7 286.29 700.5 285.49 703.23 285.49 704.15 286.41 708.08 286.41 708.08 284.91 709.03 284.91 709.15 285.02 709.78 283.81 711.86 283.52"/>
    <polygon class="cls-3" points="752 304.07 754.16 301.91 759.57 301.91 764.33 301.91 765.41 301.91 767.14 301.91 760.39 287.9 758.17 285.68 753.46 285.68 751.3 287.85 743.78 287.85 743.78 286.82 738.85 286.82 735.88 283.84 729.17 283.84 723.92 286.06 723.92 286.82 717.54 286.82 713.32 283.68 713.32 283.68 711.86 283.52 709.78 283.81 709.15 285.02 709.78 285.65 709.78 286.74 709.24 286.74 709.24 288.45 711.37 288.39 712.59 287.98 717.05 287.98 718.59 288.55 717.3 289.93 711.61 289.85 708.69 291.39 710.73 296.42 713.97 303.6 718.39 303.6 719.98 305.18 723.22 305.18 723.22 302.42 725.98 302.42 729.14 305.59 733.77 305.59 735.63 303.72 740.18 303.72 740.18 305.94 742.05 304.07 752 304.07"/>
    <g>
      <polygon class="cls-3" points="700.66 300.48 697.34 298.12 698.07 297.31 702.37 300.23 702.37 298.37 705.94 299.66 705.94 298.93 703.26 297.47 702.69 295.69 698.15 289.85 703.99 287.82 708.86 288.47 709.24 288.45 709.24 286.74 709.78 286.74 709.78 285.65 709.03 284.91 708.08 284.91 708.08 286.41 704.15 286.41 703.23 285.49 700.5 285.49 699.7 286.29 698.26 286.29 697.58 286.97 695.47 286.97 695.47 288.44 693.68 288.44 693.68 289.73 692.33 291.09 691.47 291.09 691.47 293.15 690.74 293.15 693.36 297.23 695.55 297.64 694.25 299.5 695.06 301.94 696.61 303.56 696.77 302.5 698.23 304.05 698.96 303.4 699.93 305.26 700.83 304.29 699.69 301.45 700.66 300.48"/>
      <polygon class="cls-3" points="708.69 308.35 706.72 308.35 706.39 308.01 704.24 308.01 704 307.77 701.75 307.81 701.75 309.4 704.67 309.4 705.86 310.29 710.24 310.29 710.24 309.05 708.69 309.05 708.69 308.35"/>
      <rect class="cls-3" x="706.26" y="301.96" width="1.73" height="1"/>
      <rect class="cls-3" x="703.99" y="303.45" width=".89" height=".57"/>
      <rect class="cls-3" x="712.51" y="306.7" width=".95" height="2.05"/>
      <rect class="cls-3" x="708.92" y="300.07" width="1.05" height="1.32"/>
      <rect class="cls-3" x="708.21" y="296.61" width="1.03" height="1.68"/>
      <rect class="cls-3" x="708.53" y="302.8" width=".91" height=".93"/>
      <rect class="cls-3" x="714.59" y="304.97" width="1.41" height="1.51"/>
    </g>
    <polygon class="cls-3" points="697.3 277.96 697.3 276.43 697.86 276.15 697.86 274.16 694.78 274.16 691.02 270.39 690.11 268.88 690.11 268.28 687.98 268.28 686.44 269.4 686.44 272.34 687.68 272.97 687.68 274.31 686.92 275.07 687.98 276.13 687.98 278.2 687.75 278.2 690.27 282.2 690.36 282.2 691.97 283.81 692.67 283.11 697.09 282.71 697.09 280.64 698.63 280.64 698.63 279.29 697.3 277.96"/>
    <polygon class="cls-3" points="686.62 278.2 685 280.11 685.2 282.21 686.73 283.4 687.44 283.4 688.63 282.2 690.27 282.2 687.75 278.2 686.62 278.2"/>
    <g>
      <polygon class="cls-3" points="755.25 179.44 756.76 182.58 763.25 183.88 771.47 184.42 772.01 182.68 765.74 178.57 772.01 171.43 788.24 167.32 788.24 165.48 781.75 165.48 781.21 166.02 771.15 166.02 760.98 170.78 755.25 179.44"/>
      <polygon class="cls-3" points="826.43 156.83 836.49 160.18 847.53 160.72 847.53 158.02 833.68 153.8 826.43 156.83"/>
      <polygon class="cls-3" points="849.69 158.78 849.69 163.21 853.27 163.21 860.73 161.91 860.73 160.72 854.02 158.78 849.69 158.78"/>
      <polygon class="cls-3" points="939.92 167.75 940.46 170.13 947.72 171.97 958.43 170.78 958.43 168.94 939.92 167.75"/>
      <polygon class="cls-3" points="961.78 169.86 961.78 171 972.82 171.97 972.82 169.86 961.78 169.86"/>
      <polygon class="cls-3" points="956.04 173.06 956.04 175.22 964.27 176.41 964.27 175.33 956.04 173.06"/>
      <polygon class="cls-3" points="1054.77 182.33 1057.36 184.2 1063.53 183.27 1063.53 181.68 1058.34 181.03 1054.77 182.33"/>
      <polygon class="cls-3" points="1029.05 238.08 1049.54 258.57 1048.6 259.09 1046.25 256.74 1043.9 256.74 1045.68 262.26 1052.74 267.86 1051.77 268.26 1048.93 266.96 1049.25 269.32 1048.03 269.32 1044.71 265.99 1043.81 261.28 1041.42 258.89 1036.35 252.2 1036.35 250.33 1032.46 247.73 1031.72 245.3 1029.05 242.78 1030.1 241.08 1027.99 238.65 1029.05 238.08"/>
      <path class="cls-3" d="M1088.8,201.08l2.49-.54,13.63,4.33,2.49-1.73-3.9-2.38,1.84-.54-1.08-2.16-10.39-3.46h-5.3l-34.19-7.68-12.77-1.08,2.81,2.27-1.19,1.19-8.12-3.08h-21.26l-2.33-2.32-15.91-.33-11.79-2.49v-1.4l-23.8-2.06,1.41,4.22-16.98-1.62v3.68l-14.93-8.98h-11.14v2.27l-12.44-1.62-16.55-.97-11.15,2.82v-.76l10.28-5.3v-1.41l-5.73-3.14h-12.34v-1.3h-5.3v-1.3h-7.9v2.92l-25.97,4.11,1.3,4.11h-12.44l3.14,3.46-1.08,1.19-4.11-1.08-4.11,.97-4.22-4h-1.19l1.62,3.35-2.16,1.73,4.98,7.14,7.68,.65,3.57,4.11-.97,.65-3.14-2.92h-3.79l-2.92,7.36-2.92-1.19,2.28-5.63-3.79-1.62-2.81-5.73-2.06-2.05v-4.44h-8.98v3.46l-1.3,1.3,.33,4.22,7.57,3.35-.87,2.49-9.19-3.89-16.23-4.22-.43,1.84,6.92,3.46-3.13,2.38-1.41-2.92-7.73,1.89-1.03,1.03h-2.92v-2.16l-13.52,4.54v2.19h-4.3l-1.76-1.76v-1.78h2l-2-2h-3.9v3.9l2.17,1.08-.87,2.71-4.65-1.3-4.54,3.35,1.84,3.03-9.19-1.95-.44,1.73,3.89,1.08,.11,1.73-7.9-1.95-.97-4.65-5.95-3.14v-1.3l17.04,4.49,3.41-3.41-1.19-2.81-13.95-4.54-11.36-2.06v-.17l-4.65,2.01v3.14l3.63,1.08-2.01,3.46,3.25,3.57v3.79l1.52,1.52v2.06l2.92,2.92v1.49l-6.28,5.11,1.62,1.62h2.92v1.19h-2.6l-2.7,1.4,.05,1.26-1.41,1.14,1.79,3.35-1.19,.81v1.25h1.84v1.51l1.3,2.6,7.46,1.46v2.98l5.74,3.79v2.06h-3.73v4.11h8.12l5.81,5.82h5.49l1.66,1.66h6.13v6.75h-4.11v3.62l2.92-.7v1.08l-2.16,1.41h-1.67v.76l1.78,1.19-1.51,.97v1.46l-1.62,.43,3.9,2.46h2.19s2.13,2.13,4.28,4.28l1.59-.36,9.63,3.62h3.41l6,2.71,2.81,2.76,2.29-2.57-4.18-3.92v-3.79l-3.25-1.41v-2.27l2.49-2.49h1.73l2.22-2.22-4.87-4.87h-3.08v-2.87h-2.16v-6.82l1.95-1.95,3.19,3.19,1.25-1.24-2.05-2.06,6.6-3.57h4.87l9.52,4.11,1.95-1.95h5.19l1.9,1.89h6.65v-3.08l-4.54-1.62,1.41-4.11-1.3-2.6,1.19-1.3,18.5-4.76,5.95,.11,2.49,4.22h7.68v2.81h2.92l4.6-4.6v2.43l14.44,11.68,2.27-1.89,2.38,2.22,5.41-.97,6.01,6.01h4.82l4.54,1.03,9.52-6h6.82v2.6h10.71v-3.41l-1.62-1.62v-3.41l11.36,3.57,3.83,3.83h4.44l1.43-1.43,10.1,3.28,2.11,1.95h12.6l3.25-3.25,10.92,2.44,2.6-2.72v-7.67l-2.6-2.6,1.87-1.87h11.77l14.73,14.73h6.86l6.96,6.96h5.05v-3.1h6.01v12.01h-5.03l5.09,8.49,.91-.91h7.9l4.54-19.58-5.73-13.09-3.36-4.22-9.85-4.33v2.7l-12.22-4,7.14-17.09h20.45l4.33,1.51v2.06l7.35-2.27v-1.41h-3.25v-7.9h7.79l4.11,4.11,3.14-3.14-1.84-2.6,3.35-.11,2.92,4.44-2.81,7.57,1.4,1.41-2.76,6.98,20.18,20.18,3.63-3.62-1.89-1.89,2.6-2.6-3.68-3.68h3.09v-1.68l-3.25-3.25,1.57-1.57-6.06-6.49h-3.57l-3.79-7.46h4.65l1.19,1.19h1.73v-2.11h8.92l6.87-6.87,6.6,.76,.11-1.41-12.34-6.06,2.27-2.06-3.35-2.38,1.62-.86,4.65,2.16Zm-152.33,42.03l-3.9,3.25v1.62l-4.22,1.62-3.25-1.62,4.71-1.46v-1.79l1.62-1.62,2.19-2.19v-6.9h1.05l1.78,5.03v4.06Z"/>
    </g>
    <polygon class="cls-3" points="574.68 200.86 578.57 206.7 587.23 208.43 600.86 200.86 596.75 197.4 582.9 200.21 580.52 197.4 574.68 200.86"/>
    <polygon class="cls-3" points="1014.25 353.63 1018.25 358.82 1019.77 358.82 1019.77 346.7 1016.96 346.16 1014.25 353.63"/>
    <polygon class="cls-3" points="980.39 368.55 980.39 372.23 984.28 372.23 986.61 369.91 986.61 367.58 982.23 367.58 980.39 368.55"/>
    <polygon class="cls-3" points="1010.45 285.57 1011.8 284.55 1015.11 285.57 1014.6 283.85 1018.37 281.7 1018.37 280.17 1019.03 279.65 1020.89 280.68 1023.47 280.68 1023.51 280.64 1018.42 272.16 1023.45 272.16 1023.45 260.15 1017.44 260.15 1017.44 263.25 1012.39 263.25 1005.43 256.29 998.58 256.29 983.85 241.57 972.08 241.57 970.22 243.43 972.82 246.03 972.82 253.7 970.22 256.42 966.81 255.65 966.81 261.61 975.49 261.61 983.12 266.23 983.12 267.37 972.57 267.37 972.57 271.18 968.03 271.18 968.03 273.74 964.58 273.74 963.16 272.32 961.37 272.32 961.37 275 963.97 277.27 961.45 278.81 961.45 280.84 959.1 282.3 951.72 282.3 947.09 285.47 936.46 283.35 936.46 281.57 918.72 281.57 914.07 275.62 906.39 271.51 897.84 271.51 897.84 267.07 892.32 262.64 884.86 259.07 884.49 257.82 881.69 257.19 881.69 260.07 879.33 260.07 879.33 261.98 880.74 263.39 880.74 264.91 873.18 264.91 873.18 269.34 874.58 270.75 874.58 272.08 871.22 271.4 867.33 272.81 871.88 278.97 871.01 282.43 870.89 282.4 871.17 284.6 869.44 284.6 867.98 284.6 867.98 287.47 862.13 287.47 862.13 290.17 858.89 290.17 858.89 289.2 854.83 290.98 854.83 293.15 854.27 293.12 854.27 295.37 855.62 296.72 856.55 295.78 860.19 297.39 859.7 299.58 860.76 300.88 859.3 302.18 861.81 302.18 864.25 304.37 864.25 306.48 870.74 308.92 874.63 306.56 878.77 308.27 878.77 311.43 877.43 312.77 877.43 313.62 875.04 313.62 876.01 316.06 877.96 316.06 878.77 318.25 877.23 319.63 875.93 318.49 874.63 319.63 876.74 321.41 876.66 323.36 885.18 328.39 887.13 326.44 905.71 336.99 910.58 335.53 911.55 336.1 911.55 338.37 912.45 338.37 914.88 334.56 920.4 336.75 923.8 336.75 923.8 335.61 928.43 330.99 931.43 332.28 933.63 330.74 936.3 332.77 934.92 334.23 938.41 335.37 939.38 334.23 943.28 337.72 943.28 345.1 941.58 346.81 941.58 351.35 945.88 351.35 946.69 354.44 948.96 354.44 948.96 358.25 951.07 358.25 951.07 360.52 955.04 360.52 955.04 361.66 956.91 361.66 956.91 357.03 958.13 357.03 958.13 355.9 964.29 355.9 966.32 355.25 966.32 353.46 967.78 353.46 969.57 355.25 972.57 355.25 972.57 358.17 977.34 360.51 978.44 359.03 984.07 360.44 984.07 364.55 985.9 364.55 985.58 360.87 1002.57 354.81 1010.57 346.16 1016.09 334.47 1016.09 329.17 1010.9 327.44 1013.5 324.2 1005.16 313.38 1000.08 310.67 1003.54 302.56 1007.55 302.56 1007.55 300.94 1000.89 298.93 997.21 302.61 989.91 295.31 998.62 286.6 1002.41 290.39 999.05 293.74 1001.27 295.96 1007.98 291.63 1007.98 291.63 1011.2 287.09 1010.45 285.57"/>
    <polygon class="cls-3" points="846.02 286.93 842.12 285.52 844.07 283.35 843.14 282.82 843.42 282.43 843.42 280.91 850.13 280.91 850.13 279.51 852.51 279.51 853.98 280.98 866.25 280.98 871.01 282.43 871.17 284.6 867.98 284.6 867.98 287.47 862.13 287.47 862.13 290.17 858.89 290.17 858.89 289.2 854.83 290.98 854.83 293.15 852.78 293.04 852.78 293.9 845.34 293.55 844.88 293.09 840.72 293.09 840.17 291.85 842.5 290.28 844.61 291.31 844.73 290.68 848.4 290.71 850.78 288.33 846.02 285.52 846.02 286.93"/>
    <polygon class="cls-3" points="1023.66 296.83 1018.58 292.71 1023.23 288.06 1021.72 285.57 1022.31 281.84 1023.47 280.68 1020.89 280.68 1019.03 279.65 1018.37 280.17 1018.37 281.7 1014.6 283.85 1015.11 285.57 1011.8 284.55 1010.45 285.57 1011.2 287.09 1007.98 291.63 1012.2 293.25 1011.65 298.45 1020.63 299.96 1023.68 296.84 1023.66 296.83"/>
    <polygon class="cls-3" points="1030.8 303.42 1023.68 296.84 1020.63 299.96 1020.63 299.96 1020.85 301.91 1018.69 303.1 1022.37 306.35 1023.45 312.08 1031.24 309.7 1030.8 303.42"/>
    <g>
      <polygon class="cls-3" points="976.49 449.48 972.82 449.48 972.82 443.53 970.43 443.53 970.43 440.18 952.26 426.33 950.31 421.13 945.55 421.13 944.04 419.62 939.93 419.62 953.56 433.69 953.56 441.15 955.94 441.15 960.05 450.78 971.95 462.68 976.49 462.68 976.49 449.48"/>
      <polygon class="cls-3" points="998.57 466.36 992.18 464.84 992.18 467.01 984.83 466.36 984.83 464.73 977.68 463.44 973.9 466.47 978.55 467.11 978.01 468.41 1003.65 473.61 1003.65 469.6 998.57 468.52 998.57 466.36"/>
      <polygon class="cls-3" points="1019.66 471.55 1014.47 470.9 1013.39 472.8 1005.16 471.55 1005.16 473.28 1012.52 474.69 1019.66 473.61 1019.66 471.55"/>
      <polygon class="cls-3" points="1039.19 471.36 1021.1 472.8 1021.1 473.61 1027.34 473.61 1039.19 472.8 1039.19 471.36"/>
      <polygon class="cls-3" points="1018.5 476.15 1018.5 477.85 1021.1 477.85 1022.96 479.72 1024.79 477.89 1022.43 475.54 1018.5 476.15"/>
      <polygon class="cls-3" points="1040.24 472.8 1032.54 479.72 1034.81 480.37 1046.33 472.8 1045.68 471.36 1040.24 472.8"/>
      <polygon class="cls-3" points="985.04 450.89 981.79 449.81 980.5 451.97 983.31 453.59 985.04 450.89"/>
      <polygon class="cls-3" points="977.14 448.4 977.14 452.29 979.09 452.29 979.09 450.35 977.9 446.67 974.66 446.23 975.19 448.4 977.14 448.4"/>
      <polygon class="cls-3" points="1044 448.24 1037.62 446.88 1037.62 448.94 1042.81 448.94 1042.81 450.46 1044 448.24"/>
      <polygon class="cls-3" points="1043.25 452.29 1043.25 453.81 1045.63 455.86 1047.47 454.08 1046.33 452.29 1043.25 452.29"/>
      <polygon class="cls-3" points="1049.41 451.75 1050.93 454.08 1055.36 454.08 1057.63 455.86 1059.37 454.08 1057.63 451.75 1049.41 451.75"/>
      <polygon class="cls-3" points="1050.17 441.37 1050.17 439.31 1052.87 440.18 1052.87 438.77 1051.77 437.66 1052.87 434.77 1051.04 434.77 1052.87 431.95 1051.47 431.41 1049.41 432.39 1047.47 438.01 1048.44 439.31 1048.44 441.48 1046.92 441.48 1046.92 443.53 1051.36 443.53 1050.17 441.37"/>
      <polygon class="cls-3" points="1060.72 441.31 1057.85 440.66 1057.85 442.77 1060.72 442.77 1060.72 441.31"/>
      <polygon class="cls-3" points="1081.87 445.8 1079.92 447.75 1079.92 449.81 1078.09 449.81 1074.73 453.16 1071.49 453.16 1071.49 449.59 1070.29 449.59 1071.05 446.02 1070.07 443.31 1067.7 443.31 1066.72 442.34 1063.91 442.34 1062.72 443.53 1057.53 443.53 1059.37 447.1 1063.48 447.1 1063.48 449.26 1068.24 449.26 1068.24 450.78 1062.72 450.78 1062.72 451.75 1067.27 455.86 1068.56 454.08 1082.41 461.38 1084.58 468.85 1081.65 468.85 1080.79 471.44 1088.69 471.44 1090.85 475.55 1093.23 475.84 1093.23 451.03 1081.87 445.8"/>
      <polygon class="cls-3" points="1019.08 454.35 1021.1 454.35 1021.1 461.71 1023.99 461.71 1023.99 452.29 1026.26 450.02 1027.4 451.16 1027.4 454.89 1028.51 456 1028.51 459 1030.14 459 1030.14 457.92 1033.29 457.92 1033.29 455.97 1031.89 455.97 1030.09 454.18 1031.5 452.77 1027.99 449.26 1033.56 443.69 1033.56 442.56 1031.04 445.08 1028.32 445.08 1027.25 446.14 1024.79 446.14 1024.79 444.5 1023.88 444.5 1023.88 439.74 1025.61 438.88 1037.84 439.96 1042.08 435.71 1041.14 434.77 1037.59 438.31 1026.8 435.85 1022.31 438.34 1022.31 443.53 1021.1 443.53 1021.1 448.18 1019.08 450.2 1019.08 454.35"/>
      <polygon class="cls-3" points="990.11 452.29 996.18 452.29 996.18 453.59 1000.19 453.59 1000.19 452.29 1005.16 452.29 1005.16 457.27 1010.79 454.89 1010.79 447.42 1015.06 443.15 1015.06 437.36 1019.66 437.36 1020.2 435.85 1016.96 432.6 1017.83 431.72 1014.27 428.15 1016.14 426.28 1014.44 424.87 1009 424.87 1009 429.01 1005.76 436.39 1001.87 436.39 1000.89 435.42 998.78 435.42 996.83 437.36 992.7 437.36 990.79 435.14 989.37 435.14 988.77 432.82 985.56 436.04 985.56 441.15 990.11 445.71 990.11 452.29"/>
    </g>
    <g>
      <polygon class="cls-3" points="1013.82 413.02 1007.22 422.65 1006.19 421.62 998.94 428.87 994.24 429.36 994.24 435.14 990.79 435.14 992.7 437.36 996.83 437.36 998.78 435.42 1000.89 435.42 1001.87 436.39 1005.76 436.39 1009 429.01 1009 424.87 1014.44 424.87 1016.14 426.28 1021.61 420.81 1013.82 413.02"/>
      <polygon class="cls-3" points="968.49 422.32 964.23 417.67 961.53 419.62 960.07 419.62 960.07 417.65 957.48 415.86 956.5 416.72 957.56 417.89 958.42 424.92 961.56 428.06 961.56 430.22 969.35 436.61 970.98 438.55 972.06 438.55 972.38 434.01 968.49 430.11 968.49 422.32"/>
    </g>
    <polygon class="cls-3" points="845.26 300.4 845.26 296.93 849.37 296.93 849.37 303.06 855.1 300.94 860.17 300.16 859.7 299.58 860.19 297.39 856.55 295.78 855.62 296.72 854.27 295.37 854.27 293.12 852.78 293.04 852.78 293.9 845.34 293.55 844.88 293.09 840.72 293.09 840.17 291.85 842.5 290.28 844.61 291.31 844.73 290.68 843.31 289.47 844.28 288.6 842.58 287.66 838.52 292.28 835.36 292.28 835.36 293.99 839.34 298.45 837.85 301.13 839.2 303.06 845.26 300.4"/>
    <polygon class="cls-3" points="835.25 330.36 837.88 329.23 837.88 325.41 839.15 324.14 841.53 324.14 841.53 322.84 842.93 321.65 845.09 321.65 845.09 322.84 846.34 322.84 846.34 317.06 849.13 317.06 849.13 315.97 847.15 314.57 847.15 313.86 851.37 313.86 851.37 307.53 849.69 305.86 849.69 304.02 854.02 302.43 858.57 303.06 859.77 302.18 859.3 302.18 860.76 300.88 860.17 300.16 855.1 300.94 849.37 303.06 849.37 296.93 845.26 296.93 845.26 300.4 839.2 303.06 837.85 301.13 837.63 301.53 833.85 300.33 833.85 300.99 828.98 300.99 828.98 304.94 824.54 306.72 824.54 308.56 822.27 308.56 818.21 307.09 818.21 315.11 819.08 315.97 820.81 323.12 823.3 323.12 823.3 325.82 820.64 328.47 821.6 329.43 826.16 330.36 835.25 330.36"/>
    <polygon class="cls-3" points="855.67 349.84 855.67 346.81 852.52 343.66 852.52 340.97 849.91 340.97 849.91 339.13 852.62 336.42 854.27 336.42 855.02 337.16 857.49 337.16 858.14 333.5 860.65 330.99 860.65 328.71 862.34 328.71 862.34 326.52 864.19 324.68 864.19 321.41 865.15 320.45 865.15 319.18 862.95 319.18 862.95 317.07 860.77 314.89 860.77 312.97 859.69 311.89 859.69 310.78 866.15 310.78 869.36 308.4 864.25 306.48 864.25 304.37 861.81 302.18 859.77 302.18 858.57 303.06 854.02 302.43 849.69 304.02 849.69 305.86 851.37 307.53 851.37 313.86 847.15 313.86 847.15 314.57 849.13 315.97 849.13 317.06 846.34 317.06 846.34 322.84 845.09 322.84 845.09 321.65 842.93 321.65 841.53 322.84 841.53 324.14 839.15 324.14 837.88 325.41 837.88 329.23 835.25 330.36 826.16 330.36 821.6 329.43 826.22 334.04 827.95 334.04 827.95 338.37 830.55 338.37 830.55 341.07 827.52 341.07 825.46 343.13 825.46 345.69 826.22 345.84 842.12 345.84 848.29 352 848.29 349.84 855.67 349.84"/>
    <polygon class="cls-3" points="883.23 333.26 894.68 339.51 905.39 341.78 909.93 342.18 910.66 340.97 909.61 339.1 909.42 335.88 905.71 336.99 887.13 326.44 885.18 328.39 884.42 327.94 883.23 329.36 883.23 333.26"/>
    <polygon class="cls-3" points="916.34 341.13 917.04 340.07 922.02 341.13 922.51 338.53 920.23 338.04 920.34 336.72 914.88 334.56 912.45 338.37 912.01 338.37 911.8 339.99 916.34 341.13"/>
    <polygon class="cls-3" points="924.94 352.16 923.64 352.16 923.64 354.6 921.61 354.6 921.61 349.93 923.03 349.93 925.35 347.62 924.05 346.32 915.53 346.32 915.53 344.09 914.03 344.09 912.28 342.35 910.58 344.05 913.26 346.73 911.39 346.73 911.39 349.97 912.85 349.97 913.83 350.95 913.18 352.08 916.08 359.93 921.64 357.84 921.64 355.9 923.7 355.9 925.86 361.31 925.87 361.32 927.54 360.85 924.94 352.16"/>
    <polygon class="cls-3" points="929 357.19 927.54 356.06 927.54 354.52 928.68 354.52 928.68 351.83 931.03 351.83 932.57 347.46 931.45 346.34 932.85 344.94 932.85 341.66 935.33 339.18 937.64 339.18 937.64 337.6 938.33 336.91 938.33 335.34 934.92 334.23 936.3 332.77 933.63 330.74 931.43 332.28 928.43 330.99 923.8 335.61 923.8 336.75 920.4 336.75 920.34 336.72 920.23 338.04 922.51 338.53 922.02 341.13 917.04 340.07 916.34 341.13 911.8 339.99 912.01 338.37 911.55 338.37 911.55 336.1 910.58 335.53 909.42 335.88 909.61 339.1 910.66 340.97 909.93 342.18 905.39 341.78 894.68 339.51 883.23 333.26 883.23 329.36 884.42 327.94 876.66 323.36 876.74 321.41 874.63 319.63 875.93 318.49 877.23 319.63 878.77 318.25 877.96 316.06 876.01 316.06 875.04 313.62 877.43 313.62 877.43 312.77 878.77 311.43 878.77 308.27 874.63 306.56 870.74 308.92 869.36 308.4 866.15 310.78 859.69 310.78 859.69 311.89 860.77 312.97 860.77 314.89 862.95 317.07 862.95 319.18 865.15 319.18 865.15 320.45 864.19 321.41 864.19 324.68 862.34 326.52 862.34 328.71 860.65 328.71 860.65 330.99 858.14 333.5 857.49 337.16 855.02 337.16 854.27 336.42 852.62 336.42 849.91 339.13 849.91 340.97 852.52 340.97 852.52 343.66 855.67 346.81 855.67 349.84 848.29 349.84 848.29 352 851.32 355.03 854.89 355.03 854.89 356.93 850.72 356.93 857.86 364.06 860.73 361.2 860.73 357.3 862.46 357.3 866.46 379.05 871.88 387.7 871.88 390.19 878.42 402.96 878.42 407.23 881.39 410.21 884.53 410.21 884.53 405.88 886.69 405.88 886.69 401.88 889.51 401.88 889.51 380.56 896 379.59 896 377.32 904.22 367.8 908.88 364.33 908.88 361.09 913.85 358.6 913.85 360.76 916.08 359.93 913.18 352.08 913.83 350.95 912.85 349.97 911.39 349.97 911.39 346.73 913.26 346.73 910.58 344.05 912.28 342.35 914.03 344.09 915.53 344.09 915.53 346.32 924.05 346.32 925.35 347.62 923.03 349.93 921.61 349.93 921.61 354.6 923.64 354.6 923.64 352.16 924.94 352.16 926.76 358.25 929 358.25 929 357.19"/>
    <polygon class="cls-3" points="953.87 396.63 952 393.14 952 389.21 948.55 385.35 948.55 383.36 949.93 383.36 949.93 380.12 945.06 372.65 945.06 367.01 948.88 367.01 948.88 365.63 950.34 365.63 950.34 364.55 951.96 364.55 954.82 360.52 951.07 360.52 951.07 358.25 948.96 358.25 948.96 354.44 946.69 354.44 945.88 351.35 941.58 351.35 941.58 346.81 943.28 345.1 943.28 337.72 939.38 334.23 938.41 335.37 938.33 335.34 938.33 336.91 937.64 337.6 937.64 339.18 935.33 339.18 932.85 341.66 932.85 344.94 931.45 346.34 932.57 347.46 931.03 351.83 928.68 351.83 928.68 354.52 927.54 354.52 927.54 356.06 929 357.19 929 358.25 926.76 358.25 927.54 360.85 925.87 361.32 934.95 374.61 934.95 381.75 939.28 381.75 942.63 379.05 942.85 375.91 945.88 380.13 950.96 394.95 950.45 406.7 953.87 397.89 953.87 396.63"/>
    <polygon class="cls-3" points="963.24 393.65 962.21 390.14 965.08 387.27 971.79 387.27 971.79 382.24 969.19 379.64 969.19 375.26 966.22 372.29 964.05 372.29 961.62 374.72 959.99 373.1 957.51 375.59 956.32 375.59 956.32 367.8 953.83 367.8 953.83 365.25 952.12 364.34 951.96 364.55 950.34 364.55 950.34 365.63 948.88 365.63 948.88 367.01 945.06 367.01 945.06 372.65 949.93 380.12 949.93 383.36 948.55 383.36 948.55 385.35 952 389.21 952 393.14 953.87 396.63 953.87 397.89 950.45 406.7 950.31 409.88 956.5 416.72 957.48 415.86 960.07 417.65 960.07 419.62 961.53 419.62 964.23 417.67 961.56 414.75 958.75 414.75 955.94 406.42 953.88 406.42 952.91 404.26 954.96 396.04 954.96 390.95 958.43 390.95 958.43 393.65 961.35 393.65 962.43 396.14 963.94 395.6 964.21 395.85 964.32 393.65 963.24 393.65"/>
    <polygon class="cls-3" points="982.34 382.62 971.08 368.88 977.34 360.51 972.57 358.17 972.57 355.25 969.57 355.25 967.78 353.46 966.32 353.46 966.32 355.25 964.29 355.9 958.13 355.9 958.13 357.03 958.05 357.03 960.64 359.63 960.64 361.52 964 363.36 964.65 362.71 968.97 366.17 967.62 367.51 966.36 367.51 965.58 368.3 978.31 381.02 977.61 381.71 979.39 383.49 980.39 394.52 975.09 396.79 975.09 399.23 976.06 399.23 976.06 400.36 972.49 400.36 972.49 402.07 970.99 402.07 971.84 402.85 971.84 408.58 973.57 408.58 985.25 398.09 985.8 393.55 982.34 382.62"/>
    <polygon class="cls-3" points="975.09 396.79 980.39 394.52 979.68 386.68 974.82 386.68 974.82 389.22 970.38 387.27 965.08 387.27 962.21 390.14 963.24 393.65 964.32 393.65 964.21 395.85 966.25 400.16 968.94 400.19 970.99 402.07 972.49 402.07 972.49 400.36 976.06 400.36 976.06 399.23 975.09 399.23 975.09 396.79"/>
    <polygon class="cls-3" points="738.97 331.01 740.18 324.62 740.18 318.25 741.29 318.25 743.21 320.17 744.64 320.17 749.99 316.59 751.62 320.68 745.94 323.36 748.13 325.87 747.32 328.55 744.97 328.55 743.1 332.2 738.97 331.01"/>
    <polygon class="cls-3" points="1161.23 516.96 1159.44 511.85 1157.33 512.99 1160.09 520.37 1166.66 527.11 1168.45 525.24 1161.23 516.96"/>
    <polygon class="cls-3" points="892.32 262.64 897.84 267.07 897.84 271.51 906.39 271.51 914.07 275.62 918.72 281.57 936.46 281.57 936.46 283.35 947.09 285.47 951.72 282.3 959.1 282.3 961.45 280.84 961.45 278.81 963.97 277.27 961.37 275 961.37 272.32 963.16 272.32 964.58 273.74 968.03 273.74 968.03 271.18 972.57 271.18 972.57 267.37 983.12 267.37 983.12 266.23 975.49 261.61 966.81 261.61 966.81 255.65 959.3 253.97 956.04 257.23 943.44 257.23 941.33 255.28 931.24 252 929.81 253.43 925.37 253.43 921.53 249.6 910.17 246.03 910.17 249.44 911.8 251.06 911.8 254.47 901.08 254.47 901.08 251.87 894.27 251.87 884.75 257.88 884.49 257.82 884.86 259.07 892.32 262.64"/>
    <polyline class="cls-3" points="609.98 347.55 639.81 370.34 646.62 368.55 665.8 353.43 665.8 353.43 665.8 353.43 666.58 352.81 666.58 348.92 659.6 348.92 657.17 343.08 657.17 327.66 651.33 312.4 654.25 310.62 654.12 301.94 648.17 301.94 644.84 303.72 643.62 302.83 632.26 304.05 628.53 306.48 626.82 306.48 622.12 308.97 621.97 308.97 623.74 320.68 618.55 320.68 618.55 324.9 599.67 333.5 599.67 337.29 599.67 339.67 600.1 340 600.1 339.18 600.1 340 609.98 347.55"/>
    <polygon class="cls-3" points="747.12 377.24 747.12 387.87 751.62 385.68 757.87 386.77 765.4 394.34 765.4 394.34 765.4 394.34 765.5 394.44 767.25 392.96 756.76 383.27 753.2 373.03 749.07 377.24 747.12 377.24"/>
    <polygon class="cls-3" points="765.4 394.34 763.63 397.01 763.63 400.71 767.55 400.36 770.38 397.37 768.01 393.65 767.25 392.96 765.5 394.44 765.4 394.34"/>
    <polygon class="cls-3" points="699.42 390.58 699.42 382.19 705.73 382.19 705.73 365.71 704.48 365.71 704.48 367.9 679.41 352.89 675.77 355.29 676.08 355.41 679.41 365.42 679.41 377.97 670.07 390.58 670.96 390.58 672.79 396.13 672.79 396.13 676.4 392.17 676.97 403.69 673.48 403.69 672.83 405.88 677.86 412.37 677.24 413.48 681.19 411.68 682.16 412.94 688.74 407.14 693.32 407.14 701.61 399.69 701.61 399.69 701.61 399.69 702.56 398.85 699.42 390.58"/>
    <polygon class="cls-3" points="707.45 358.39 707.45 365.71 705.73 365.71 705.73 382.19 699.42 382.19 699.42 390.58 702.56 398.85 701.61 399.69 705.45 403.53 705.45 408.31 716.42 419.28 716.42 422.07 728.09 426.6 736.8 426.6 738.83 424.57 739.34 424.06 745.62 424.06 745.62 419.3 738.37 412.05 735.12 412.05 735.12 409.13 738.91 409.13 747.12 393.51 747.12 388.51 747.12 387.87 747.12 377.24 749.07 377.24 753.2 373.03 753.19 372.99 748.76 371.37 747.56 359.14 742.91 355.57 741.43 352.51 735.55 358.39 707.45 358.39"/>
    <polygon class="cls-3" points="735.55 358.39 741.43 352.51 729.6 328.09 731.12 328.09 736.64 336.31 737.61 336.31 738.58 330.47 735.63 324.49 730.12 324.49 726.63 322.55 719.98 325.87 712.43 322.95 707.45 322.95 707.45 358.39 735.55 358.39"/>
    <polygon class="cls-3" points="584.96 353.41 588.74 353.41 588.74 343.56 600.1 343.56 600.1 340 599.67 339.67 599.67 337.29 585.71 337.29 579.44 347.78 575.76 351.24 573.97 356.17 571.86 358.28 571.86 361.2 584.96 361.2 584.96 353.41"/>
    <polygon class="cls-3" points="721.06 503.14 715.11 507.9 709.75 507.9 712.51 517.53 717.3 517.53 721.19 525.32 727.77 525.32 728.66 525.32 733.67 514.85 733.67 505.18 729.87 501.38 726.03 501.38 726.03 498.93 721.06 500.65 721.06 503.14"/>
    <polygon class="cls-3" points="725.22 444.71 721.64 451.2 722.78 451.2 725.45 451.2 725.45 449.9 728.33 449.9 728.33 446.23 725.22 446.23 725.22 444.71"/>
    <polygon class="cls-3" points="726.74 542.96 730.52 542.96 731.5 541.23 730.52 541.23 730.52 538.41 726.74 538.41 726.74 542.96"/>
    <polygon class="cls-3" points="586.79 386.41 586.79 382.84 588.74 382.84 608 382.84 608 347.78 609.98 347.55 600.1 340 600.1 343.56 588.74 343.56 588.74 353.41 584.96 353.41 584.96 361.2 571.86 361.2 571.86 361.95 573.27 364.55 573.27 379.27 580.41 379.27 586.79 386.41"/>
    <polygon class="cls-3" points="625.65 384.05 624.15 384.05 616.03 391.11 613.52 390.46 608.4 401.09 608.97 401.09 612.54 404.66 617.66 404.66 617.66 400.38 623.15 399.96 626.26 399.96 629.34 399.96 629.82 399.44 633.71 395.24 625.65 384.05"/>
    <polygon class="cls-3" points="725.45 451.2 722.78 451.2 724.86 457.17 728.33 453.19 728.33 449.9 725.45 449.9 725.45 451.2"/>
    <polygon class="cls-3" points="702.56 505.52 698.88 501.84 698.88 489.4 705.37 489.4 705.37 482.64 699.04 482.64 699.04 468.52 695.15 468.52 695.15 466.09 690.28 466.9 690.28 471.6 684.43 471.6 681.68 463.65 667.15 463.65 671.18 474.26 669.34 474.26 671.83 481.61 671.83 486.81 665.23 499.68 665.23 506.5 694.99 506.5 702.56 505.52"/>
    <polygon class="cls-3" points="665.89 449.7 672.79 449.7 672.79 442.72 671.96 441.89 671.96 440 674.18 437.78 672.31 435.9 669.87 435.9 669.87 432.49 664.03 432.49 664.03 437.52 658.77 437.52 655.49 444.72 662.99 455.81 665.89 453.88 665.89 449.7"/>
    <polygon class="cls-3" points="664.03 432.49 658.79 432.49 658.79 437.47 658.77 437.52 664.03 437.52 664.03 432.49"/>
    <polygon class="cls-3" points="588.74 393.76 588.74 392.49 588.74 382.84 586.79 382.84 586.79 386.41 580.41 379.27 573.27 379.27 573.27 381.43 571.86 385.32 571.86 393.76 581.95 393.76 588.74 393.76"/>
    <polygon class="cls-3" points="761.29 429.67 763.81 427.15 760.23 423.56 757.46 426.33 757.46 427.63 752.52 427.63 748.94 424.06 745.62 424.06 739.34 424.06 738.83 424.57 743.51 433.67 739.01 440.3 740.8 440.83 740.8 444.56 739.81 445.55 751.38 451.97 750.81 454.89 756.56 458.5 762.93 446.67 763.26 446.31 761.29 444.34 761.29 429.67"/>
    <polygon class="cls-3" points="669.87 432.49 679.41 432.49 679.41 429.49 674.37 418.54 677.24 413.48 677.86 412.37 672.83 405.88 673.48 403.69 676.97 403.69 676.4 392.17 672.79 396.13 672.79 396.13 673.48 398.25 664.15 417 661.71 414.32 658.07 414.32 654.45 423.22 655.03 423.22 658.79 426.98 658.79 432.49 664.03 432.49 669.87 432.49"/>
    <polygon class="cls-3" points="751.38 451.97 739.81 445.55 737.4 447.97 737.4 450.35 732.42 450.35 732.42 444.34 728.33 444.34 728.33 446.23 728.33 449.9 728.33 453.19 724.86 457.17 724.86 457.17 724.86 457.17 724.52 457.57 729.63 473.39 739.69 476.72 740.71 480.36 740.71 480.36 740.71 480.36 741.88 484.59 751.95 484.59 759.68 481.38 759.68 479.23 756.11 479.23 756.11 459.33 756.56 458.5 750.81 454.89 751.38 451.97"/>
    <polygon class="cls-3" points="741.88 484.59 740.71 480.36 739.37 487.59 740.71 493.11 743.75 493.11 743.75 501.22 741.56 505.12 738.15 500.49 740.22 498.42 740.22 494.89 736.61 494.89 734.8 493.3 725.71 496.65 726.68 498.71 726.03 498.93 726.03 501.38 729.87 501.38 733.67 505.18 733.67 514.85 728.66 525.32 727.77 525.32 730.52 531.81 730.52 538.41 730.52 541.23 731.5 541.23 732.53 541.23 732.53 536.9 740.48 531.7 740.48 518.13 759.68 498.92 759.68 481.38 751.95 484.59 741.88 484.59"/>
    <polygon class="cls-3" points="592.75 410.25 592.75 410.25 593.15 409.77 590.15 403.69 585.28 403.69 584.25 406.47 584.41 406.64 584.41 412.26 588.63 415.21 592.75 410.25 592.75 410.25"/>
    <polygon class="cls-3" points="599.32 415.45 599.32 412.29 592.75 410.25 588.63 415.21 601.67 424.33 602.56 418.7 599.32 415.45"/>
    <polygon class="cls-3" points="571.86 393.76 571.86 394.41 577.67 400.07 581.95 393.76 571.86 393.76"/>
    <polygon class="cls-3" points="623.15 399.96 617.66 400.38 617.66 404.66 618.83 404.66 618.83 410.55 617.01 412.37 617.01 421.97 620.33 423.19 629.18 418.33 626.26 399.96 623.15 399.96"/>
    <path class="cls-3" d="M634.45,394.44l-.74,.8-3.9,4.2-.48,.51,2.52,3.16s.33,9.75,.44,13.49l.04-.02h3.25v-9.09l3.65-5.84v-4.87l-4.79-2.35Z"/>
    <path class="cls-3" d="M629.34,399.96h-3.08l2.92,18.37,3.12-1.71c-.12-3.74-.44-13.49-.44-13.49l-2.52-3.16Z"/>
    <polygon class="cls-3" points="599.67 333.5 618.55 324.9 618.55 320.68 623.74 320.68 621.97 308.97 614.11 308.97 612.14 306.99 609.73 306.99 606.81 313.38 599.13 317.92 598.8 319.76 596.21 323.87 597.4 327.55 590.47 336.75 586.04 336.75 585.71 337.29 599.67 337.29 599.67 333.5"/>
    <polygon class="cls-3" points="683.46 547.07 683.46 548.53 688.82 549.34 691.79 547.63 691.79 523.7 695.42 523.7 695.42 509.63 702.45 507.9 709.91 508.47 709.75 507.9 708.72 507.9 708.72 507.63 708.72 506.17 703.21 506.17 702.56 505.52 694.99 506.5 665.23 506.5 665.23 508.34 674.53 527.38 679.3 548.04 679.3 548.04 680.48 548.04 680.55 548.16 681.89 545.93 683.46 547.07"/>
    <polygon class="cls-3" points="694.17 541.63 697.42 541.63 700.91 535.55 703.42 535.55 704.56 537.61 709.43 537.61 721.01 524.95 717.3 517.53 712.51 517.53 709.91 508.47 702.45 507.9 695.42 509.63 695.42 523.7 691.79 523.7 691.79 534.46 694.66 538.41 694.17 541.63"/>
    <polygon class="cls-3" points="731.5 541.23 730.52 542.96 726.74 542.96 726.74 538.41 730.52 538.41 730.52 531.81 727.77 525.32 721.19 525.32 721.01 524.95 709.43 537.61 704.56 537.61 703.42 535.55 700.91 535.55 697.42 541.63 694.17 541.63 694.66 538.41 691.79 534.46 691.79 547.63 688.82 549.34 683.46 548.53 683.46 547.07 681.89 545.93 680.55 548.16 686.22 559.4 686.22 564.27 683.84 564.27 690.55 570.98 712.02 566.06 732.53 545.55 732.53 541.23 731.5 541.23"/>
    <polygon class="cls-3" points="770.18 506.06 770.18 509.74 771.2 510.77 771.2 515.91 769.2 520.67 767.9 520.67 766.34 522.24 766.34 526.19 768.47 528.32 768.47 532.68 770.07 535.6 772.12 535.6 772.12 536.68 774.83 536.68 776.02 535.49 779.05 535.49 782.51 524.46 788.79 509.31 788.79 505.2 790.08 502.71 788.68 498.92 790.08 497.84 791.06 500.55 792.57 497.84 791.16 495.68 791.16 489.4 788.19 486.43 786.94 487.67 786.94 491.13 784.24 491.13 784.24 495.46 778.4 499.79 772.01 499.79 772.01 503.25 770.18 506.06"/>
    <polygon class="cls-3" points="631.15 382.96 637.85 382.96 641.1 379.7 641.1 370 639.81 370.34 609.98 347.55 608 347.78 608 382.84 588.74 382.84 588.74 392.49 597.04 392.49 599.89 401.09 608.4 401.09 613.52 390.46 616.03 391.11 624.15 384.05 625.65 384.05 626.1 384.68 629.43 384.68 631.15 382.96"/>
    <polygon class="cls-3" points="672.79 396.13 670.96 390.58 670.34 390.58 666.57 393.19 665.01 391.64 660.24 391.64 658.42 393.47 654.98 393.47 652.25 390.74 650.52 392.48 648.96 392.48 646.68 390.19 639.89 390.19 639.89 392.38 638.51 393.76 638.51 396.43 639.24 396.79 639.24 398.72 639.24 401.66 635.59 407.5 635.59 416.59 641.32 416.59 646.3 423.22 654.45 423.22 658.07 414.32 661.71 414.32 664.15 417 673.48 398.25 672.79 396.13"/>
    <polygon class="cls-3" points="679.41 377.97 679.41 365.42 676.08 355.41 675.77 355.29 670.7 353.43 665.8 353.43 646.62 368.55 641.1 370 641.1 379.7 637.85 382.96 631.15 382.96 629.43 384.68 626.1 384.68 633.71 395.24 634.45 394.44 638.51 396.43 638.51 393.76 639.89 392.38 639.89 390.19 646.68 390.19 648.96 392.48 650.52 392.48 652.25 390.74 654.98 393.47 658.42 393.47 660.24 391.64 665.01 391.64 666.57 393.19 670.34 390.58 670.07 390.58 679.41 377.97"/>
    <polygon class="cls-3" points="599.89 401.09 597.04 392.49 588.74 392.49 588.74 393.76 581.95 393.76 577.67 400.07 584.25 406.47 585.28 403.69 590.15 403.69 593.15 409.77 592.75 410.25 598.15 411.93 600.42 401.09 599.89 401.09"/>
    <polygon class="cls-3" points="617.66 404.66 612.54 404.66 608.97 401.09 608.4 401.09 600.42 401.09 598.15 411.93 599.32 412.29 599.32 415.45 602.56 418.7 601.67 424.33 602.05 424.6 606.27 421.24 615.03 421.24 617.01 421.97 617.01 412.37 618.83 410.55 618.83 404.66 617.66 404.66"/>
    <polygon class="cls-3" points="659.55 324.3 661.66 324.3 661.66 321.22 663.72 321.22 663.72 316.52 663.28 316.33 659.28 314.6 659.28 313.05 662.69 309.65 662.69 306.89 660.98 306.89 660.98 305.02 662.69 303.32 662.69 302.1 660.17 302.91 660.17 301.04 657.42 301.04 656.12 301.94 654.12 301.94 654.25 310.62 651.33 312.4 657.09 327.44 659.55 327.44 659.55 324.3"/>
    <polygon class="cls-3" points="707.07 322.95 707.07 320.68 701.31 320.68 701.31 318.81 697.25 317.35 690.52 320.52 690.52 322.55 691.86 324.86 688.74 327.98 676.32 323.44 676.32 320.36 670.56 318.33 667.88 318.33 663.72 316.52 663.72 321.22 661.66 321.22 661.66 324.3 659.55 324.3 659.55 327.44 657.09 327.44 657.17 327.66 657.17 343.08 659.6 348.92 666.58 348.92 666.58 352.81 665.8 353.43 670.7 353.43 675.77 355.29 679.41 352.89 704.48 367.9 704.48 365.71 705.73 365.71 707.45 365.71 707.45 358.39 707.45 322.95 707.07 322.95"/>
    <polygon class="cls-3" points="774.46 421.99 785.29 411.16 782.29 411.16 772.18 406.83 767.25 401.9 767.25 400.39 763.63 400.71 763.63 397.01 765.4 394.34 757.87 386.77 751.62 385.68 747.12 387.87 747.12 388.51 747.12 393.51 738.91 409.13 735.12 409.13 735.12 412.05 738.37 412.05 745.62 419.3 745.62 424.06 748.94 424.06 752.52 427.63 757.46 427.63 757.46 426.33 760.23 423.56 763.03 426.36 771.5 421.99 774.46 421.99"/>
    <polygon class="cls-3" points="773.32 401.98 770.38 397.37 767.55 400.36 767.25 400.39 767.25 401.9 772.18 406.83 782.29 411.16 785.29 411.16 774.46 421.99 771.5 421.99 763.03 426.36 763.81 427.15 761.29 429.67 761.29 444.34 763.26 446.31 787.16 420.16 794.52 401.98 794.52 396.25 773.32 401.98"/>
    <polygon class="cls-3" points="729.78 432.97 725.2 437.55 724.34 446.31 725.22 444.71 725.22 446.23 728.33 446.23 728.33 444.34 732.42 444.34 732.42 440.61 737.34 439.8 739.01 440.3 743.51 433.67 738.83 424.57 736.8 426.6 728.33 426.6 728.33 431.52 729.78 432.97"/>
    <polygon class="cls-3" points="671.07 458.9 673.48 457.17 673.48 458.9 675.83 458.9 680 454.73 680 448.83 685.3 443.53 685.3 438.12 685.3 427.63 681.03 427.63 681.03 431.85 679.41 431.85 679.41 432.49 669.87 432.49 669.87 435.9 672.31 435.9 674.18 437.78 671.96 440 671.96 441.89 672.79 442.72 672.79 449.7 665.89 449.7 665.89 453.88 662.99 455.81 665.66 459.76 665.74 459.95 669.45 457.17 671.07 458.9"/>
    <polygon class="cls-3" points="740.71 493.11 739.37 487.59 740.71 480.36 739.69 476.72 735.66 475.38 735.66 487.56 733.46 493.79 734.8 493.3 736.61 494.89 740.22 494.89 740.22 498.42 738.15 500.49 741.56 505.12 743.75 501.22 743.75 493.11 740.71 493.11"/>
    <polygon class="cls-3" points="729.63 473.39 729.01 471.48 722.14 472.26 722.14 473.5 719.81 475.83 720.89 476.91 720.89 480.64 719.75 483.07 719.75 484.65 721.71 486.6 724.95 486.6 724.95 491.32 722.27 491.32 717.97 487.02 717.05 484.07 715.05 484.07 715.05 486.26 710.18 485.08 710.18 483.83 707.32 483.83 707.32 482.75 706.02 481.88 705.33 482.64 705.37 482.64 705.37 489.4 698.88 489.4 698.88 501.84 702.56 505.52 703.21 506.17 708.72 506.17 708.72 507.63 708.72 507.9 709.75 507.9 715.11 507.9 721.06 503.14 721.06 500.65 726.03 498.93 726.68 498.71 725.71 496.65 733.46 493.79 735.66 487.56 735.66 475.38 729.63 473.39"/>
    <polygon class="cls-3" points="687.15 423.56 691.11 422.27 692.42 424.57 700.9 426.6 701.46 423.56 703.51 423.94 712.55 421.8 716.42 421.8 716.42 419.28 705.45 408.31 705.45 403.53 701.61 399.69 693.32 407.14 688.74 407.14 682.16 412.94 681.19 411.68 677.24 413.48 674.37 418.54 679.41 429.49 679.41 431.85 681.03 431.85 681.03 427.63 685.3 427.63 685.3 427.63 687.15 425.62 687.15 423.56"/>
    <polygon class="cls-3" points="722.14 472.26 729.01 471.48 724.52 457.57 724.86 457.17 722.78 451.2 721.64 451.2 724.34 446.31 725.2 437.55 729.78 432.97 728.33 431.52 728.33 426.6 728.09 426.6 716.42 422.07 716.42 421.8 712.55 421.8 703.51 423.94 701.46 423.56 700.9 426.6 692.42 424.57 691.11 422.27 687.15 423.56 687.15 425.62 685.3 427.63 685.3 438.12 685.3 443.53 680 448.83 680 454.73 675.83 458.9 673.48 458.9 673.48 457.17 671.07 458.9 669.45 457.17 665.74 459.95 665.83 460.19 667.15 463.65 681.68 463.65 684.43 471.6 690.28 471.6 690.28 466.9 695.15 466.09 695.15 468.52 699.04 468.52 699.04 482.64 705.33 482.64 706.02 481.88 707.32 482.75 707.32 483.83 710.18 483.83 710.18 485.08 715.05 486.26 715.05 484.07 717.05 484.07 717.97 487.02 722.27 491.32 724.95 491.32 724.95 486.6 721.71 486.6 719.75 484.65 719.75 483.07 720.89 480.64 720.89 476.91 719.81 475.83 722.14 473.5 722.14 472.26"/>
    <polygon class="cls-3" points="574.68 200.86 578.57 206.7 587.23 208.43 600.86 200.86 596.75 197.4 582.9 200.21 580.52 197.4 574.68 200.86"/>
    <polygon class="cls-3" points="506.52 215.57 514.09 215.57 514.09 219.47 519.93 219.47 537.35 202.05 544.17 202.05 555.69 190.53 581.6 186.36 585.5 186.36 585.5 176.19 593.72 167.97 593.72 157.58 605.4 157.58 615.9 154.34 615.9 152.61 596.31 152.61 589.82 147.85 565.8 147.85 534.86 151.53 519.93 151.96 502.84 158.67 492.45 158.67 485.58 165.54 488.77 168.4 508.9 168.4 508.9 181.6 514.31 181.6 514.31 184.63 506.52 184.63 506.52 188.31 512.14 188.31 510.3 190.15 506.08 190.15 501.97 196.1 506.52 215.57"/>
    <g>
      <polygon class="cls-3" points="353.21 357.84 355 358.98 360.68 356.54 364.73 356.54 363.72 357.56 367.33 357.56 371.55 361.09 371.55 363.36 376.26 363.36 376.26 365.31 374.47 365.31 374.47 366.93 382.1 366.93 386.32 365.63 386.32 364.01 381.94 364.01 381.94 361.74 378.69 361.74 373.25 356.3 369.77 356.3 369.77 355.09 366.2 353.95 360.68 353.95 353.21 357.84"/>
      <polygon class="cls-3" points="359.01 359.01 360.29 357.84 361.68 358.79 360.34 359.93 359.01 359.01"/>
    </g>
    <polygon class="cls-3" points="372.12 371.15 371.31 372.53 373.5 374.15 378.12 374.15 378.45 372.65 375.28 371.15 372.12 371.15"/>
    <polygon class="cls-3" points="408.31 371.64 408.31 373.83 412.2 373.83 413.18 372.73 413.18 371.64 408.31 371.64"/>
    <polygon class="cls-3" points="458.86 631.78 462.19 631.78 463.08 632.67 460.97 635.43 458.86 634.29 458.86 631.78"/>
    <polygon class="cls-3" points="463.81 632.92 461.94 636.24 464.13 636.24 466.32 634.58 467.54 634.58 467.54 632.92 463.81 632.92"/>
    <g>
      <polygon class="cls-3" points="488.56 158.56 514.85 152.88 515.82 150.61 496.83 149.47 456.26 151.74 456.26 154.02 460.32 156.29 459.18 158.56 452.04 154.02 440.36 156.77 440.36 161.32 449.77 163.1 449.77 164.89 441.66 164.89 441.66 167.65 462.59 168.46 469.73 166.35 469.73 162.78 482.88 158.07 488.56 158.56"/>
      <polygon class="cls-3" points="417.8 158.96 420.94 163.75 437.6 163.75 437.6 161.36 434.25 160.07 429.05 160.61 424.08 160.61 417.8 158.96"/>
      <polygon class="cls-3" points="428.84 166.13 428.84 167.54 433.92 167.54 433.92 169.49 431.87 170.46 431.87 172.51 458.26 172.51 460.43 169.92 452.21 169.32 448.53 169.81 440.36 169.81 440.36 165.16 428.84 166.13"/>
      <polygon class="cls-3" points="367.6 168.46 387.94 163.75 391.84 169.38 396.38 168.84 396.38 166.56 403.63 166.56 403.63 170.57 383.61 173.92 367.6 168.46"/>
      <polygon class="cls-3" points="409.79 166.35 409.79 169.59 413.91 169.59 413.91 171 421.26 171 424.83 172.51 429.49 170.13 424.29 170.13 424.29 166.35 409.79 166.35"/>
      <polygon class="cls-3" points="437.6 174.35 425.05 181.6 425.05 184.63 431.33 184.63 431.33 186.15 448.2 186.15 451.02 185.28 458.37 192.64 443.01 201.19 438.03 201.19 438.03 204.21 448.31 204.21 453.29 209.19 463.24 209.19 469.03 203.4 465.51 199.89 469.3 196.1 475.14 201.94 482.55 194.53 472.44 189.61 476.44 186.69 461.62 174.9 437.6 174.35"/>
      <path class="cls-3" d="M400.44,177.38s2,4.7,3.19,4.7,10.76-3.57,10.76-3.57l2.27-6.01-16.23,4.87Z"/>
      <polygon class="cls-3" points="345.58 179.33 348.83 182.09 355.16 182.09 362.62 179.33 362.62 180.71 360.31 183.02 358.24 183.02 358.24 183.88 367.6 183.88 370.23 186.5 358.73 186.5 358.73 187.93 363.27 187.93 363.27 188.74 361.89 190.12 361.89 190.93 367.6 190.93 380.88 187.69 380.88 188.82 385.62 190.45 390.05 189.96 391.59 187.12 394.92 187.69 396.38 186.07 390.94 182.9 393.22 181.36 394.27 177.63 399.14 176.25 399.14 174.62 389.73 175.92 386.73 180.79 385.18 180.39 386.16 178.03 383.4 176.65 376.5 176.82 372.77 173.08 366.36 173.08 365.75 172.47 355.97 172.47 355.97 174.79 345.58 179.33"/>
      <polygon class="cls-3" points="416.02 204.08 416.02 205.13 411.63 206.43 411.63 207.24 415.61 207.24 415.61 208.3 417.8 208.3 422.91 205.3 426.57 207.73 429.73 206.19 427.46 204.08 427.7 203.27 423.24 199.7 420.96 199.7 416.02 204.08"/>
      <polygon class="cls-3" points="417.07 210.81 417.07 212.03 419.75 212.03 423.73 209.84 423.73 208.7 419.83 209.19 417.07 210.81"/>
      <polygon class="cls-3" points="425.05 212.6 426.89 210.81 429 210.81 429 211.71 427.02 213.65 425.05 212.6"/>
      <polygon class="cls-3" points="445.39 254.87 447.13 256.62 447.13 257.39 450.58 258.77 452.94 258.36 452.94 256.82 448.72 254.87 445.39 254.87"/>
      <polygon class="cls-3" points="457.72 262.1 469.45 250.37 473.79 249.03 473.79 250.17 468.56 255.4 470.95 255.4 470.95 256.82 476.31 256.82 476.31 258.12 474.68 258.12 474.68 259.74 477.36 259.74 477.36 263.15 474.16 266.36 471.92 266.36 473.81 264.47 472.53 263.19 469.16 266.56 466.41 266.56 466.41 264.94 468.35 264.94 469.69 263.6 467.05 263.6 467.05 262.91 457.72 262.91 457.72 262.1"/>
      <polygon class="cls-3" points="441.57 266.36 444.98 268.79 447.54 267.57 447.54 266.88 444.56 266.88 443.12 266.03 443.12 265.18 441.78 265.18 441.57 266.36"/>
      <path class="cls-3" d="M472.76,241l-.65-2.16-6.71-3.79v-1.95l-.97-.97,1.84-2.27-2.17-12.12h-1.62l-6.27,6.28h-1.41l-4.11,1.3-2.7-3.46,3.68-5.09-1.46-1.46h-3.52v-2.87l-3.68-2.27-2.49,1.19h-2.92l-3.46-1.62-3.25,1.84v2.38l-2.6,2.06v3.46l-5.03,5.03,2.16,2.16v3.41l-3.71,3.71-10.2,4.08v2.27l-2.05,6.27-3.36,2.81h-3.25v-1.4l-1.35-1.35v-2.65l2.76,.98,.65-1.84-2.49-1.62v-2.71l2.81-1.84v-1.3h-7.57l-1.35-1.35-5.46-3.62-4.22-1.95h-4.54l1.73-4.98h-3.35v-1.84l4.22-4.22,12.01-8.33h5.19v-2.06h2.81l1.41-2.27h4.76l5.3-2.71,.49-1.3,4.38-2.49v-1.52h4v1.3l1.84,2.16,1.08-2.16,6.82-2.49,1.95-2.38v-2.6h3.35v-3.03h-8.44v2.06l-10.28,4.33-1.19-1.19,2.98-2.98-1.84-1.84-3.08,3.08-1.57-2.6v-2.05s2.11,.76,2.11,0v-5.74l3.57-2.7h3.68l6.38-3.25v-.86h-10.22l-5.52,6.06-10.71,5.35,4.54,2.44v3.25h-6.87v-4.54h-3.19l-5.33,5.33h-11.06l-4.38-2.08-12.06,4.71h-12.6v-2.65h3.25v-2.7l-13.79-3.08-10.71-1.81-25.48,4.9-8.65-1.9-37.41,32.47,3.76,3.77v2.33l-2.66,2.92v8.28h3.89l1.3-2.27h1.79v4.22l-2.6,2.92,1.62,4.06-1.62,4.22h-3.57v3.89l5.52,5.52-.25,.48,5.44,1.95v-3.41h80.49l11.6,4.09,3.33-1.33,.49,.89,5.36-3.33h4.54v3h2.19v4.14l.97,3.89h8.28l1.14,1.13v2.19l-2.15,2.15-1.33-1.33-1.55,1.54h-1.21l-4.13,4.13h-.44l-.82,2.84,4.41-1.54,5.52-1.7,1.7-2.92,8.36-.81v.88l6-3.75h10.71l8.9-8.9h4.41v2.19l-1.68,3.46,.96,2.24,7.05-1.16v1.52l-6.17,3.57,1.51,3.14,7.79-4.44,8.66-2.49v-1.08h2.38l1.95-2.27-1.4-.86,.97-1.62-1.3-.87-3.79,3.35-.11,1.41h-4.11l-3.89-2.27v-3.25l5.3-4.65v-2.16h-4.87l-13.42,5.52v-1.73l9.95-4.11v-2.27l2.16-2.16h19.15l7.14-2.81,3.68-.32,4-2.49,2.38-5.08-3.14-1.08Zm-143.68-39.12l7.99-2.74-5.56-2.46,13.73-.42-4.48,2.74,5.03,2.48-6.94,.8-2.21-.12-5.28,.86-5.58,2.26,3.24-2.66,.06-.74Zm22.34,8.93l-15.58,5.36h-8.28v-1.62l7.95-2.52,.16-2.84,4.54,2.84,11.2-3.33v2.11Zm6.33,38.95l-2.6,4.22-.73-1.13,1.54-2.6v-2.6l-.91-1.19-.63-7.61,3.85-1.41-.52,12.32Z"/>
    </g>
    <g>
      <polygon class="cls-3" points="262.01 219.46 262.2 219.65 299.61 187.17 271.26 180.95 241.4 189.88 234.42 189.88 231.5 191.18 235.56 196.7 235.56 198.97 228.74 198.97 228.74 196.37 222.74 196.37 215.27 198.97 215.27 204.32 227.93 202.54 227.93 206.11 202.61 213.25 202.61 215.68 198.88 216.82 198.88 219.58 205.05 219.58 205.05 221.36 201.39 225.01 203.91 225.01 210.56 225.01 206.35 227.53 166.26 240.35 166.26 241.81 189.14 236.29 189.14 237.59 192.71 237.59 192.71 234.67 211.7 228.18 223.87 223.15 223.87 221.04 235.07 216.49 235.07 217.95 229.39 220.87 229.39 222.34 238.48 219.42 243.18 219.42 245.7 216.9 250.32 216.9 252.88 219.46 262.01 219.46"/>
      <polygon class="cls-3" points="431.6 263.8 427.19 263.8 418.29 272.7 407.58 272.7 401.57 276.44 401.57 278.49 393.22 278.49 393.22 280.92 381.94 286.44 377.88 286.44 377.88 283.84 381.58 282.55 382.41 279.7 382.13 279.7 382.13 276.31 379.8 278.65 379.8 277.81 382.85 274.75 382.85 271.73 380.88 269.76 379.38 269.76 376.26 272.89 375.55 272.18 370.62 277.11 370.62 279.83 366.6 283.84 364.17 283.84 364.17 278.81 373.58 269.4 382.67 269.4 382.67 267.53 380.88 267.53 374.71 267.53 373.25 266.07 373.25 263.96 365.71 267.21 364.25 267.21 364.25 265.91 360.27 266.56 360.27 265.26 366.92 262.61 355.32 258.53 274.83 258.53 274.83 261.93 269.39 259.98 265.74 267.13 250.49 288.87 250.49 312.08 257.55 319.14 257.55 319.38 266.88 319.38 277.26 324.25 286.35 324.25 286.35 321.82 292.36 321.82 296.28 325.74 296.28 330.04 299 332.76 301.93 329.82 306.37 329.82 308.7 332.16 308.7 342.37 315.55 344.64 315.67 344.32 315.67 338.69 320.32 334.04 332.11 329.17 338.39 332.2 341.85 330.47 343.58 331.77 344.67 330.8 342.94 328.63 346.29 327.33 355.16 327.33 357.05 329.23 359.38 329.23 360.32 328.28 362.41 328.28 365.23 331.11 365.23 333.93 362.74 336.43 362.74 340.86 366.63 347.13 368.58 347.13 370.96 340.21 370.96 333.39 368.79 327.77 374.31 319.87 375.61 319.87 381.45 314.03 384.59 314.03 387.18 311.43 390.76 311.43 390.76 308.29 392.81 306.24 392.81 298.66 394.32 297.15 395.51 298.56 394.54 300.4 395.51 300.83 399.41 296.83 399.09 294.34 400.71 294.34 405.36 289.68 405.36 287.41 416.18 285.47 416.18 282.33 417.37 282.33 417.37 279.84 421.8 276.59 430.03 273.56 430.03 271.83 430.87 271.69 429.92 269.45 431.6 265.99 431.6 263.8"/>
    </g>
    <path class="cls-3" d="M392.65,366.93l-2.11-.97-2.52,.97-.08,.73,2.76,.24-.16,3.25h-6.41v1.5l2.09,2.09,1.64-2.09h4.38l.27,.27,1.79-6.37-1.65,.39Z"/>
    <polygon class="cls-3" points="403.2 369.53 400.84 369.53 396.79 365.96 394.3 366.54 392.51 372.92 394.14 374.55 395.33 374.55 395.33 371.96 397.11 371.96 397.11 372.94 399.54 372.94 399.54 371.88 403.2 372.94 404.66 371.15 403.2 369.53"/>
    <path class="cls-3" d="M334.42,386.35h0l4.44-4.47h-1.98v-.91l-.83,.52h-1.18l1.1-7.34h-7.26v2.27l2.52,2.51v1.95h-5.2s-1.2,3.07-1.97,5.06l6.44,4.02h.32l3.6-3.62h0Z"/>
    <path class="cls-3" d="M331.22,380.89v-1.95l-2.52-2.51v-2.27h7.71l3.57-3.57,1.8,1.8,1.58-4.05v-2.81l2.92-2.92,.11-2.38h-5.73l-7.03,1.41v4.65l-3.79,3.9h-4.65v1.41l-5.63,1.08-.97-.97h-3.35l-3.68-11.58v-4.44l3.99-11.04-6.85-2.27v-10.22l-2.33-2.33h-4.43l-2.94,2.93-2.72-2.72v-4.3l-3.92-3.92h-6v2.44h-9.09l-10.39-4.87h-9.33v10.06l4.99,4.99v2.8h-4.1v1.62l6.82,6.82-2.27,2.27,6.98,6.98v1.62h3.41v-5.36l-3.33-3.33v-4.79l-3.81-10.06-2.6-4.54v-6l7.14,3.41v5.84l6.65,9.57-1.62,2.11,10.55,13.14v7.47h-2.6v2.27l6.09,6.09h5.44l15.9,10.14,6.17-3.25,6.65,6.65,.06,.03c.77-2,1.97-5.06,1.97-5.06h5.2Z"/>
    <polygon class="cls-3" points="336.42 374.15 335.97 374.15 334.87 381.5 336.05 381.5 336.88 380.98 336.88 379.92 340.12 376.67 341.79 372.39 339.99 370.58 336.42 374.15"/>
    <polygon class="cls-3" points="351.16 400.47 351.16 395.28 353 394.41 353 388.89 354.35 387.54 354.35 385.76 348.42 385.76 342.26 389.33 342.26 392.61 339.42 392.61 339.42 394.2 344.83 399.61 351.28 400.59 351.16 400.47"/>
    <path class="cls-3" d="M334.42,386.35l-3.6,3.62h8.12v-1.3l-4.52-2.32Z"/>
    <path class="cls-3" d="M342.26,389.33l6.17-3.57h5.92v-2.38l-1.49-1.49h-14l-4.44,4.47,4.52,2.32v1.3h.49v2.64h2.84v-3.29Z"/>
    <polygon class="cls-3" points="351.28 400.59 344.83 399.61 345.02 399.79 345.02 404.09 350.01 409.08 350.01 410.42 352.91 413.33 352.91 410.97 353.87 410.97 354.5 403.77 351.28 400.59"/>
    <polygon class="cls-3" points="372.63 408.86 368.95 405.18 364.9 404.91 359.05 408.26 354.5 403.77 353.87 410.97 356.57 410.97 356.57 413.33 362.95 413.33 362.95 410.1 365.6 407.45 368.52 410.37 367.39 411.51 369.85 413.97 372.63 411.23 372.63 408.86"/>
    <polygon class="cls-3" points="363.92 457.6 365.76 459.97 368.47 452.4 376.91 448.83 376.91 441.48 365.03 433.66 364.25 434.44 364.25 436.07 361.44 437.36 361.44 440.61 358.08 443.96 358.08 449.7 361.27 452.89 361.27 453.81 360.41 454.68 360.79 457.49 363.92 457.6"/>
    <polygon class="cls-3" points="384.94 450.1 391.35 449.05 394.6 450.91 392.81 455.05 395.71 455.67 397.35 444.67 394.43 441.74 394.43 438.74 397.92 438.74 397.92 436.88 395.65 436.88 395.65 434.44 404.66 434.44 402.71 430.39 402.71 417.32 397.35 417.32 394.8 414.76 388.59 414.76 386.89 406.85 385.1 406.85 387.45 400.04 390.1 398.55 390 398.2 393.57 395.71 392.05 393.55 385.45 398.74 380.8 398.74 377.5 402.04 377.5 405.01 373.15 409.37 372.63 408.86 372.63 411.23 369.85 413.97 371.71 415.83 371.71 419.62 370.85 420.49 370.85 427.84 365.03 433.66 376.91 441.48 376.91 442.43 384.05 445.88 384.94 450.1"/>
    <polygon class="cls-3" points="399.57 498.81 400.92 493.84 401.14 487.46 398.11 481.83 394.32 481.83 394.32 477.39 388.16 477.39 381.07 470.31 385.13 465.49 385.13 459.97 392.59 456.95 395.51 456.95 395.71 455.67 392.81 455.05 394.6 450.91 391.35 449.05 384.94 450.1 384.05 445.88 376.91 442.43 376.91 448.83 368.47 452.4 365.76 459.97 363.92 457.6 360.79 457.49 360.41 454.68 357.78 457.3 357.78 459.65 360.26 462.13 360.26 463.11 358.51 463.11 358.51 464.41 363.49 467.22 365.98 472.09 376.8 491.13 376.8 494.06 393.46 504.98 393.46 507.14 397.77 509.78 400.81 506.82 399.95 505.31 402.33 501.84 399.57 498.81"/>
    <polygon class="cls-3" points="427.05 412.97 427.05 414.32 424.62 414.32 424.62 419.08 427 421.46 427 421.91 428.51 421.7 429.73 426.33 427.62 428.44 427.62 432.25 428.95 432.25 428.95 434.28 432.08 436.55 436.91 433.96 436.91 428.4 435 426.49 435 422.19 437.84 422.19 437.84 418.22 429.81 409.34 428.95 409.34 428.95 411.07 427.05 412.97"/>
    <polygon class="cls-3" points="435 422.19 435 426.49 436.91 428.4 436.91 433.96 441.01 434.17 441.01 432.22 444.47 431.3 445.88 432.55 448.07 428.92 448.07 426.81 446.63 425.68 446.63 421.41 448.26 420.97 449.09 419.34 446.47 418.43 438.03 418.43 437.84 418.22 437.84 422.19 435 422.19"/>
    <polygon class="cls-3" points="411.36 439.69 416.93 434.12 416.93 431.95 414.45 431.95 414.45 428.17 412.61 426 419.32 426 427 423.84 427 421.91 427 421.46 424.62 419.08 424.62 414.32 427.05 414.32 427.05 412.97 428.95 411.07 428.95 409.34 425.92 409.34 425.92 405.34 420.89 400.31 415.96 400.31 413.88 402.39 410.34 402.39 409.05 401.11 402.22 401.11 402.22 398.63 398.11 398.63 397.14 395.39 395.73 395.39 395.73 397.98 392.16 400.8 394 403.17 393.46 406.85 391.84 407.39 389.46 404.15 390.86 401.23 390.1 398.55 387.45 400.04 385.1 406.85 386.89 406.85 388.59 414.76 394.8 414.76 397.35 417.32 402.71 417.32 402.71 430.39 404.66 434.44 404.39 434.44 404.39 439.69 411.36 439.69"/>
    <polygon class="cls-3" points="448.69 432.28 452.1 432.55 456.41 424.69 452.1 420.38 449.09 419.34 448.26 420.97 446.63 421.41 446.63 425.68 448.07 426.81 448.07 428.92 446.24 431.95 447.82 433.04 448.69 432.28"/>
    <polygon class="cls-3" points="509.87 459.98 505 459.98 495.75 450.72 487.91 450.72 483.37 449.7 479.25 452.73 479.25 448.62 469.95 443.53 467.03 446.45 465.08 446.45 467.35 442.02 467.35 440.72 460.86 440.72 458.59 443.53 457.29 442.56 461.51 437.04 461.51 433.69 459.35 433.69 457.4 425.68 456.76 425.04 456.41 424.69 452.1 432.55 448.69 432.28 447.82 433.04 446.24 431.95 445.88 432.55 444.47 431.3 441.01 432.22 441.01 434.17 436.91 433.96 432.08 436.55 428.95 434.28 428.95 432.25 427.62 432.25 427.62 428.44 429.73 426.33 428.51 421.7 427 421.91 427 423.84 419.32 426 412.61 426 414.45 428.17 414.45 431.95 416.93 431.95 416.93 434.12 411.36 439.69 404.39 439.69 404.39 434.44 395.65 434.44 395.65 436.88 397.92 436.88 397.92 438.74 394.43 438.74 394.43 441.74 397.35 444.67 395.51 456.95 392.59 456.95 385.13 459.97 385.13 465.49 381.07 470.31 388.16 477.39 394.32 477.39 394.32 481.83 398.11 481.83 398.32 482.23 401.79 482.53 402.66 480.91 403.9 480.91 407.47 477.34 411.69 477.34 411.69 484.1 416.04 488.46 418.83 488.46 422.82 492.45 426.67 492.45 428.26 494.03 428.26 502.06 436.52 502.06 436.52 505.9 438.36 505.9 439.82 509.15 437.92 515.1 439.82 519.59 439.82 523.54 446.63 523.54 448.64 531.06 452.42 531.06 452.42 536.9 455.34 536.9 455.34 542.31 444.74 552.91 460.75 563.3 461.76 568.4 463.32 566.84 463.32 561.24 468.04 556.52 468.04 551.94 472.78 547.2 472.78 544.36 471.31 542.89 471.31 536.03 472.78 536.03 482.24 526.58 491.91 526.58 491.91 524.67 494.51 524.67 498.19 514.29 498.19 509.09 499.27 509.09 499.27 489.4 501.11 489.4 505.22 481.5 507.49 481.5 512.2 476.8 512.2 466.58 509.87 459.98"/>
    <polygon class="cls-3" points="404.49 513.64 404.9 519.24 407.82 526.86 410.09 526.86 410.99 526.86 413.66 523.05 424.78 524.02 424.78 514.53 434.84 512.91 438.09 514.58 439.82 509.15 438.36 505.9 436.52 505.9 436.52 502.06 428.26 502.06 428.26 494.03 426.67 492.45 422.82 492.45 418.83 488.46 416.04 488.46 411.69 484.1 411.69 477.34 407.47 477.34 403.9 480.91 402.66 480.91 401.79 482.53 398.32 482.23 401.14 487.46 400.92 493.84 399.57 498.81 402.33 501.84 399.95 505.31 400.81 506.82 400.13 507.49 402.33 512.5 404.49 513.64"/>
    <polygon class="cls-3" points="451.83 572.44 457.72 572.44 461.76 568.4 460.75 563.3 445.82 553.61 444.33 555.34 446.47 567.84 446.85 567.46 451.83 572.44"/>
    <polygon class="cls-3" points="442.58 535.38 439.82 543.06 448.64 543.93 452.21 540.58 452.73 536.9 452.42 536.9 452.42 531.06 448.64 531.06 446.63 523.54 439.82 523.54 439.82 519.59 437.92 515.1 438.09 514.58 434.84 512.91 424.78 514.53 424.78 523.98 429.7 529.43 442.58 535.38"/>
    <path class="cls-3" d="M437.76,637.3h-2.6l-.41-1.86-8.2-.85-1.78-4.91-6.01-3.73,1.79-4.06-1.46-15.26h-2.6l-6.33-11.84v-26.38l-4.54-8.68v-7.79l2.44-9.09v-8.28l2.92-2.92v-4.79h-3.17l-2.92-7.62-.41-5.6-2.16-1.14-2.2-5.01-2.35,2.29,.12,.07,1.95,10.39v28.78l1.68,1.68v2.65l-1.33,1.32v2.03l3.11,6.71s.43,14.71,0,15.15c-.43,.44-1.73,0-1.73,0v1.84l3.24,7.14v7.14l1.52,1.51v7.03h2.49v-6.38l1.19,.87,2.81,13.3h-1.41l-1.3-3.68-1.95-.22,1.19,4.54-1.52,3.14,1.52,1.95h3.79v2.92h-2.49l4.98,10.82h2.16v2.38l5.3,5.73,4.65,3.35,13.45,4.34,.69-1.77-4.14-7.22Z"/>
    <polygon class="cls-3" points="455.34 536.9 452.73 536.9 452.21 540.58 448.64 543.93 439.82 543.06 442.58 535.38 429.7 529.43 424.78 523.98 424.78 524.02 413.66 523.05 410.99 526.86 410.99 531.65 408.06 534.57 408.06 542.85 405.63 551.94 405.63 559.73 410.17 568.4 410.17 594.78 416.5 606.62 419.1 606.62 420.56 621.88 418.77 625.94 424.78 629.67 426.56 634.58 434.76 635.43 435.17 637.3 437.76 637.3 441.9 644.52 441.21 646.29 444.52 647.36 451.45 645.41 451.45 643.9 448.74 643.9 437.92 636.54 435.76 636.54 435.76 635.24 436.63 634.38 433.38 628.97 433.38 627.56 435.76 627.56 435.76 623.67 439.28 620.15 439.28 616.85 435 616.85 431.43 613.28 431.43 609.93 435.11 609.93 435.11 602.24 437.28 602.24 437.28 598.46 433.49 598.46 430.19 595.16 430.19 592.83 436.95 595.32 439.76 592.51 439.76 588.5 437.98 586.72 437.98 584.61 440.44 587.07 451.99 583.42 451.99 581.04 453.34 579.69 453.34 576.5 450.37 576.5 450.37 573.25 445.72 568.6 446.47 567.84 444.33 555.34 445.82 553.61 444.74 552.91 455.34 542.31 455.34 536.9"/>
    <polygon class="cls-3" points="323.28 436.42 324.56 434.58 326.19 435.97 324.73 437.35 323.28 436.42"/>
    <polygon class="cls-3" points="326.19 436.9 327.97 441.86 326.32 443.24 323.69 443.4 323.1 440.95 325.54 439.27 325.28 437.54 326.19 436.9"/>
    <polygon class="cls-3" points="327.18 436.77 327.57 438.07 329.17 437.35 328.72 435.76 327.18 436.77"/>
    <polygon class="cls-3" points="329.01 438.82 328.64 439.94 329.49 440.15 329.92 438.95 329.01 438.82"/>
  </g>
  <g>
    <circle class="cls-1" cx="640.66" cy="370.09" r="6.31"/>
    <circle class="cls-2" cx="640.66" cy="370.09" r="3.24"/>
  </g>
  <g>
    <circle class="cls-1" cx="1060.72" cy="536.68" r="6.31"/>
    <circle class="cls-2" cx="1060.72" cy="536.68" r="3.24"/>
  </g>
</svg>